<svg width="1152" height="227" viewBox="0 0 1152 227" fill="none" xmlns="http://www.w3.org/2000/svg">
<g clip-path="url(#clip0)">
<g filter="url(#filter0_d)">
<rect x="23" y="30" width="1105" height="167" rx="5" fill="white"/>
</g>
<path d="M402.65 84.36C402.17 83.48 401.51 82.81 400.67 82.35C399.83 81.89 398.85 81.66 397.73 81.66C396.49 81.66 395.39 81.94 394.43 82.5C393.47 83.06 392.72 83.86 392.18 84.9C391.64 85.94 391.37 87.14 391.37 88.5C391.37 89.9 391.64 91.12 392.18 92.16C392.74 93.2 393.51 94 394.49 94.56C395.47 95.12 396.61 95.4 397.91 95.4C399.51 95.4 400.82 94.98 401.84 94.14C402.86 93.28 403.53 92.09 403.85 90.57H396.65V87.36H407.99V91.02C407.71 92.48 407.11 93.83 406.19 95.07C405.27 96.31 404.08 97.31 402.62 98.07C401.18 98.81 399.56 99.18 397.76 99.18C395.74 99.18 393.91 98.73 392.27 97.83C390.65 96.91 389.37 95.64 388.43 94.02C387.51 92.4 387.05 90.56 387.05 88.5C387.05 86.44 387.51 84.6 388.43 82.98C389.37 81.34 390.65 80.07 392.27 79.17C393.91 78.25 395.73 77.79 397.73 77.79C400.09 77.79 402.14 78.37 403.88 79.53C405.62 80.67 406.82 82.28 407.48 84.36H402.65ZM420.127 99.27C418.527 99.27 417.087 98.92 415.807 98.22C414.527 97.5 413.517 96.49 412.777 95.19C412.057 93.89 411.697 92.39 411.697 90.69C411.697 88.99 412.067 87.49 412.807 86.19C413.567 84.89 414.597 83.89 415.897 83.19C417.197 82.47 418.647 82.11 420.247 82.11C421.847 82.11 423.297 82.47 424.597 83.19C425.897 83.89 426.917 84.89 427.657 86.19C428.417 87.49 428.797 88.99 428.797 90.69C428.797 92.39 428.407 93.89 427.627 95.19C426.867 96.49 425.827 97.5 424.507 98.22C423.207 98.92 421.747 99.27 420.127 99.27ZM420.127 95.61C420.887 95.61 421.597 95.43 422.257 95.07C422.937 94.69 423.477 94.13 423.877 93.39C424.277 92.65 424.477 91.75 424.477 90.69C424.477 89.11 424.057 87.9 423.217 87.06C422.397 86.2 421.387 85.77 420.187 85.77C418.987 85.77 417.977 86.2 417.157 87.06C416.357 87.9 415.957 89.11 415.957 90.69C415.957 92.27 416.347 93.49 417.127 94.35C417.927 95.19 418.927 95.61 420.127 95.61ZM440.908 99.27C439.308 99.27 437.868 98.92 436.588 98.22C435.308 97.5 434.298 96.49 433.558 95.19C432.838 93.89 432.478 92.39 432.478 90.69C432.478 88.99 432.848 87.49 433.588 86.19C434.348 84.89 435.378 83.89 436.678 83.19C437.978 82.47 439.428 82.11 441.028 82.11C442.628 82.11 444.078 82.47 445.378 83.19C446.678 83.89 447.698 84.89 448.438 86.19C449.198 87.49 449.578 88.99 449.578 90.69C449.578 92.39 449.188 93.89 448.408 95.19C447.648 96.49 446.608 97.5 445.288 98.22C443.988 98.92 442.528 99.27 440.908 99.27ZM440.908 95.61C441.668 95.61 442.378 95.43 443.038 95.07C443.718 94.69 444.258 94.13 444.658 93.39C445.058 92.65 445.258 91.75 445.258 90.69C445.258 89.11 444.838 87.9 443.998 87.06C443.178 86.2 442.168 85.77 440.968 85.77C439.768 85.77 438.758 86.2 437.938 87.06C437.138 87.9 436.738 89.11 436.738 90.69C436.738 92.27 437.128 93.49 437.908 94.35C438.708 95.19 439.708 95.61 440.908 95.61ZM453.229 90.63C453.229 88.95 453.559 87.46 454.219 86.16C454.899 84.86 455.819 83.86 456.979 83.16C458.139 82.46 459.429 82.11 460.849 82.11C461.929 82.11 462.959 82.35 463.939 82.83C464.919 83.29 465.699 83.91 466.279 84.69V76.8H470.539V99H466.279V96.54C465.759 97.36 465.029 98.02 464.089 98.52C463.149 99.02 462.059 99.27 460.819 99.27C459.419 99.27 458.139 98.91 456.979 98.19C455.819 97.47 454.899 96.46 454.219 95.16C453.559 93.84 453.229 92.33 453.229 90.63ZM466.309 90.69C466.309 89.67 466.109 88.8 465.709 88.08C465.309 87.34 464.769 86.78 464.089 86.4C463.409 86 462.679 85.8 461.899 85.8C461.119 85.8 460.399 85.99 459.739 86.37C459.079 86.75 458.539 87.31 458.119 88.05C457.719 88.77 457.519 89.63 457.519 90.63C457.519 91.63 457.719 92.51 458.119 93.27C458.539 94.01 459.079 94.58 459.739 94.98C460.419 95.38 461.139 95.58 461.899 95.58C462.679 95.58 463.409 95.39 464.089 95.01C464.769 94.61 465.309 94.05 465.709 93.33C466.109 92.59 466.309 91.71 466.309 90.69ZM507.92 78.06V99H503.72V85.38L498.11 99H494.93L489.29 85.38V99H485.09V78.06H489.86L496.52 93.63L503.18 78.06H507.92ZM521.102 99.27C519.502 99.27 518.062 98.92 516.782 98.22C515.502 97.5 514.492 96.49 513.752 95.19C513.032 93.89 512.672 92.39 512.672 90.69C512.672 88.99 513.042 87.49 513.782 86.19C514.542 84.89 515.572 83.89 516.872 83.19C518.172 82.47 519.622 82.11 521.222 82.11C522.822 82.11 524.272 82.47 525.572 83.19C526.872 83.89 527.892 84.89 528.632 86.19C529.392 87.49 529.772 88.99 529.772 90.69C529.772 92.39 529.382 93.89 528.602 95.19C527.842 96.49 526.802 97.5 525.482 98.22C524.182 98.92 522.722 99.27 521.102 99.27ZM521.102 95.61C521.862 95.61 522.572 95.43 523.232 95.07C523.912 94.69 524.452 94.13 524.852 93.39C525.252 92.65 525.452 91.75 525.452 90.69C525.452 89.11 525.032 87.9 524.192 87.06C523.372 86.2 522.362 85.77 521.162 85.77C519.962 85.77 518.952 86.2 518.132 87.06C517.332 87.9 516.932 89.11 516.932 90.69C516.932 92.27 517.322 93.49 518.102 94.35C518.902 95.19 519.902 95.61 521.102 95.61ZM538.703 84.96C539.243 84.08 539.943 83.39 540.803 82.89C541.683 82.39 542.683 82.14 543.803 82.14V86.55H542.693C541.373 86.55 540.373 86.86 539.693 87.48C539.033 88.1 538.703 89.18 538.703 90.72V99H534.503V82.38H538.703V84.96ZM557.492 82.14C559.472 82.14 561.072 82.77 562.292 84.03C563.512 85.27 564.122 87.01 564.122 89.25V99H559.922V89.82C559.922 88.5 559.592 87.49 558.932 86.79C558.272 86.07 557.372 85.71 556.232 85.71C555.072 85.71 554.152 86.07 553.472 86.79C552.812 87.49 552.482 88.5 552.482 89.82V99H548.282V82.38H552.482V84.45C553.042 83.73 553.752 83.17 554.612 82.77C555.492 82.35 556.452 82.14 557.492 82.14ZM571.896 80.4C571.156 80.4 570.536 80.17 570.036 79.71C569.556 79.23 569.316 78.64 569.316 77.94C569.316 77.24 569.556 76.66 570.036 76.2C570.536 75.72 571.156 75.48 571.896 75.48C572.636 75.48 573.246 75.72 573.726 76.2C574.226 76.66 574.476 77.24 574.476 77.94C574.476 78.64 574.226 79.23 573.726 79.71C573.246 80.17 572.636 80.4 571.896 80.4ZM573.966 82.38V99H569.766V82.38H573.966ZM588.975 82.14C590.955 82.14 592.555 82.77 593.775 84.03C594.995 85.27 595.605 87.01 595.605 89.25V99H591.405V89.82C591.405 88.5 591.075 87.49 590.415 86.79C589.755 86.07 588.855 85.71 587.715 85.71C586.555 85.71 585.635 86.07 584.955 86.79C584.295 87.49 583.965 88.5 583.965 89.82V99H579.765V82.38H583.965V84.45C584.525 83.73 585.235 83.17 586.095 82.77C586.975 82.35 587.935 82.14 588.975 82.14ZM607.759 82.11C608.999 82.11 610.089 82.36 611.029 82.86C611.969 83.34 612.709 83.97 613.249 84.75V82.38H617.479V99.12C617.479 100.66 617.169 102.03 616.549 103.23C615.929 104.45 614.999 105.41 613.759 106.11C612.519 106.83 611.019 107.19 609.259 107.19C606.899 107.19 604.959 106.64 603.439 105.54C601.939 104.44 601.089 102.94 600.889 101.04H605.059C605.279 101.8 605.749 102.4 606.469 102.84C607.209 103.3 608.099 103.53 609.139 103.53C610.359 103.53 611.349 103.16 612.109 102.42C612.869 101.7 613.249 100.6 613.249 99.12V96.54C612.709 97.32 611.959 97.97 610.999 98.49C610.059 99.01 608.979 99.27 607.759 99.27C606.359 99.27 605.079 98.91 603.919 98.19C602.759 97.47 601.839 96.46 601.159 95.16C600.499 93.84 600.169 92.33 600.169 90.63C600.169 88.95 600.499 87.46 601.159 86.16C601.839 84.86 602.749 83.86 603.889 83.16C605.049 82.46 606.339 82.11 607.759 82.11ZM613.249 90.69C613.249 89.67 613.049 88.8 612.649 88.08C612.249 87.34 611.709 86.78 611.029 86.4C610.349 86 609.619 85.8 608.839 85.8C608.059 85.8 607.339 85.99 606.679 86.37C606.019 86.75 605.479 87.31 605.059 88.05C604.659 88.77 604.459 89.63 604.459 90.63C604.459 91.63 604.659 92.51 605.059 93.27C605.479 94.01 606.019 94.58 606.679 94.98C607.359 95.38 608.079 95.58 608.839 95.58C609.619 95.58 610.349 95.39 611.029 95.01C611.709 94.61 612.249 94.05 612.649 93.33C613.049 92.59 613.249 91.71 613.249 90.69ZM650.84 78.06L643.16 99H638.06L630.38 78.06H634.88L640.64 94.71L646.37 78.06H650.84ZM657.138 80.4C656.398 80.4 655.778 80.17 655.278 79.71C654.798 79.23 654.558 78.64 654.558 77.94C654.558 77.24 654.798 76.66 655.278 76.2C655.778 75.72 656.398 75.48 657.138 75.48C657.878 75.48 658.488 75.72 658.968 76.2C659.468 76.66 659.718 77.24 659.718 77.94C659.718 78.64 659.468 79.23 658.968 79.71C658.488 80.17 657.878 80.4 657.138 80.4ZM659.208 82.38V99H655.008V82.38H659.208ZM671.368 99.27C670.008 99.27 668.788 99.03 667.708 98.55C666.628 98.05 665.768 97.38 665.128 96.54C664.508 95.7 664.168 94.77 664.108 93.75H668.338C668.418 94.39 668.728 94.92 669.268 95.34C669.828 95.76 670.518 95.97 671.338 95.97C672.138 95.97 672.758 95.81 673.198 95.49C673.658 95.17 673.888 94.76 673.888 94.26C673.888 93.72 673.608 93.32 673.048 93.06C672.508 92.78 671.638 92.48 670.438 92.16C669.198 91.86 668.178 91.55 667.378 91.23C666.598 90.91 665.918 90.42 665.338 89.76C664.778 89.1 664.498 88.21 664.498 87.09C664.498 86.17 664.758 85.33 665.278 84.57C665.818 83.81 666.578 83.21 667.558 82.77C668.558 82.33 669.728 82.11 671.068 82.11C673.048 82.11 674.628 82.61 675.808 83.61C676.988 84.59 677.638 85.92 677.758 87.6H673.738C673.678 86.94 673.398 86.42 672.898 86.04C672.418 85.64 671.768 85.44 670.948 85.44C670.188 85.44 669.598 85.58 669.178 85.86C668.778 86.14 668.578 86.53 668.578 87.03C668.578 87.59 668.858 88.02 669.418 88.32C669.978 88.6 670.848 88.89 672.028 89.19C673.228 89.49 674.218 89.8 674.998 90.12C675.778 90.44 676.448 90.94 677.008 91.62C677.588 92.28 677.888 93.16 677.908 94.26C677.908 95.22 677.638 96.08 677.098 96.84C676.578 97.6 675.818 98.2 674.818 98.64C673.838 99.06 672.688 99.27 671.368 99.27ZM692.365 82.14C693.625 82.14 694.745 82.42 695.725 82.98C696.705 83.52 697.465 84.33 698.005 85.41C698.565 86.47 698.845 87.75 698.845 89.25V99H694.645V89.82C694.645 88.5 694.315 87.49 693.655 86.79C692.995 86.07 692.095 85.71 690.955 85.71C689.795 85.71 688.875 86.07 688.195 86.79C687.535 87.49 687.205 88.5 687.205 89.82V99H683.005V76.8H687.205V84.45C687.745 83.73 688.465 83.17 689.365 82.77C690.265 82.35 691.265 82.14 692.365 82.14ZM708.689 84.96C709.229 84.08 709.929 83.39 710.789 82.89C711.669 82.39 712.669 82.14 713.789 82.14V86.55H712.679C711.359 86.55 710.359 86.86 709.679 87.48C709.019 88.1 708.689 89.18 708.689 90.72V99H704.489V82.38H708.689V84.96ZM733.958 82.38V99H729.728V96.9C729.188 97.62 728.478 98.19 727.598 98.61C726.738 99.01 725.798 99.21 724.778 99.21C723.478 99.21 722.328 98.94 721.328 98.4C720.328 97.84 719.538 97.03 718.958 95.97C718.398 94.89 718.118 93.61 718.118 92.13V82.38H722.318V91.53C722.318 92.85 722.648 93.87 723.308 94.59C723.968 95.29 724.868 95.64 726.008 95.64C727.168 95.64 728.078 95.29 728.738 94.59C729.398 93.87 729.728 92.85 729.728 91.53V82.38H733.958ZM744.642 85.83V93.87C744.642 94.43 744.772 94.84 745.032 95.1C745.312 95.34 745.772 95.46 746.412 95.46H748.362V99H745.722C742.182 99 740.412 97.28 740.412 93.84V85.83H738.432V82.38H740.412V78.27H744.642V82.38H748.362V85.83H744.642ZM755.163 80.4C754.423 80.4 753.803 80.17 753.303 79.71C752.823 79.23 752.583 78.64 752.583 77.94C752.583 77.24 752.823 76.66 753.303 76.2C753.803 75.72 754.423 75.48 755.163 75.48C755.903 75.48 756.513 75.72 756.993 76.2C757.493 76.66 757.743 77.24 757.743 77.94C757.743 78.64 757.493 79.23 756.993 79.71C756.513 80.17 755.903 80.4 755.163 80.4ZM757.233 82.38V99H753.033V82.38H757.233ZM777.261 77.7L776.781 92.19H773.241L772.731 77.7H777.261ZM775.101 99.21C774.341 99.21 773.711 98.98 773.211 98.52C772.731 98.04 772.491 97.45 772.491 96.75C772.491 96.05 772.731 95.47 773.211 95.01C773.711 94.53 774.341 94.29 775.101 94.29C775.841 94.29 776.451 94.53 776.931 95.01C777.411 95.47 777.651 96.05 777.651 96.75C777.651 97.45 777.411 98.04 776.931 98.52C776.451 98.98 775.841 99.21 775.101 99.21Z" fill="#505050"/>
<path d="M362.112 128.544V141H360.474V131.712L356.334 141H355.182L351.024 131.694V141H349.386V128.544H351.15L355.758 138.84L360.366 128.544H362.112ZM371.712 141.162C370.788 141.162 369.948 140.952 369.192 140.532C368.448 140.112 367.86 139.518 367.428 138.75C367.008 137.97 366.798 137.07 366.798 136.05C366.798 135.042 367.014 134.154 367.446 133.386C367.89 132.606 368.49 132.012 369.246 131.604C370.002 131.184 370.848 130.974 371.784 130.974C372.72 130.974 373.566 131.184 374.322 131.604C375.078 132.012 375.672 132.6 376.104 133.368C376.548 134.136 376.77 135.03 376.77 136.05C376.77 137.07 376.542 137.97 376.086 138.75C375.642 139.518 375.036 140.112 374.268 140.532C373.5 140.952 372.648 141.162 371.712 141.162ZM371.712 139.722C372.3 139.722 372.852 139.584 373.368 139.308C373.884 139.032 374.298 138.618 374.61 138.066C374.934 137.514 375.096 136.842 375.096 136.05C375.096 135.258 374.94 134.586 374.628 134.034C374.316 133.482 373.908 133.074 373.404 132.81C372.9 132.534 372.354 132.396 371.766 132.396C371.166 132.396 370.614 132.534 370.11 132.81C369.618 133.074 369.222 133.482 368.922 134.034C368.622 134.586 368.472 135.258 368.472 136.05C368.472 136.854 368.616 137.532 368.904 138.084C369.204 138.636 369.6 139.05 370.092 139.326C370.584 139.59 371.124 139.722 371.712 139.722ZM386.25 130.956C387.45 130.956 388.422 131.322 389.166 132.054C389.91 132.774 390.282 133.818 390.282 135.186V141H388.662V135.42C388.662 134.436 388.416 133.686 387.924 133.17C387.432 132.642 386.76 132.378 385.908 132.378C385.044 132.378 384.354 132.648 383.838 133.188C383.334 133.728 383.082 134.514 383.082 135.546V141H381.444V131.136H383.082V132.54C383.406 132.036 383.844 131.646 384.396 131.37C384.96 131.094 385.578 130.956 386.25 130.956ZM394.865 136.032C394.865 135.024 395.069 134.142 395.477 133.386C395.885 132.618 396.443 132.024 397.151 131.604C397.871 131.184 398.675 130.974 399.563 130.974C400.331 130.974 401.045 131.154 401.705 131.514C402.365 131.862 402.869 132.324 403.217 132.9V127.68H404.873V141H403.217V139.146C402.893 139.734 402.413 140.22 401.777 140.604C401.141 140.976 400.397 141.162 399.545 141.162C398.669 141.162 397.871 140.946 397.151 140.514C396.443 140.082 395.885 139.476 395.477 138.696C395.069 137.916 394.865 137.028 394.865 136.032ZM403.217 136.05C403.217 135.306 403.067 134.658 402.767 134.106C402.467 133.554 402.059 133.134 401.543 132.846C401.039 132.546 400.481 132.396 399.869 132.396C399.257 132.396 398.699 132.54 398.195 132.828C397.691 133.116 397.289 133.536 396.989 134.088C396.689 134.64 396.539 135.288 396.539 136.032C396.539 136.788 396.689 137.448 396.989 138.012C397.289 138.564 397.691 138.99 398.195 139.29C398.699 139.578 399.257 139.722 399.869 139.722C400.481 139.722 401.039 139.578 401.543 139.29C402.059 138.99 402.467 138.564 402.767 138.012C403.067 137.448 403.217 136.794 403.217 136.05ZM409.549 136.032C409.549 135.024 409.753 134.142 410.161 133.386C410.569 132.618 411.127 132.024 411.835 131.604C412.555 131.184 413.353 130.974 414.229 130.974C415.093 130.974 415.843 131.16 416.479 131.532C417.115 131.904 417.589 132.372 417.901 132.936V131.136H419.557V141H417.901V139.164C417.577 139.74 417.091 140.22 416.443 140.604C415.807 140.976 415.063 141.162 414.211 141.162C413.335 141.162 412.543 140.946 411.835 140.514C411.127 140.082 410.569 139.476 410.161 138.696C409.753 137.916 409.549 137.028 409.549 136.032ZM417.901 136.05C417.901 135.306 417.751 134.658 417.451 134.106C417.151 133.554 416.743 133.134 416.227 132.846C415.723 132.546 415.165 132.396 414.553 132.396C413.941 132.396 413.383 132.54 412.879 132.828C412.375 133.116 411.973 133.536 411.673 134.088C411.373 134.64 411.223 135.288 411.223 136.032C411.223 136.788 411.373 137.448 411.673 138.012C411.973 138.564 412.375 138.99 412.879 139.29C413.383 139.578 413.941 139.722 414.553 139.722C415.165 139.722 415.723 139.578 416.227 139.29C416.743 138.99 417.151 138.564 417.451 138.012C417.751 137.448 417.901 136.794 417.901 136.05ZM433.341 131.136L427.401 145.644H425.709L427.653 140.892L423.675 131.136H425.493L428.589 139.128L431.649 131.136H433.341ZM468.835 142.908H467.197V126.69H468.835V142.908ZM516.543 128.544V141H514.905V131.712L510.765 141H509.613L505.455 131.694V141H503.817V128.544H505.581L510.189 138.84L514.797 128.544H516.543ZM521.229 136.032C521.229 135.024 521.433 134.142 521.841 133.386C522.249 132.618 522.807 132.024 523.515 131.604C524.235 131.184 525.033 130.974 525.909 130.974C526.773 130.974 527.523 131.16 528.159 131.532C528.795 131.904 529.269 132.372 529.581 132.936V131.136H531.237V141H529.581V139.164C529.257 139.74 528.771 140.22 528.123 140.604C527.487 140.976 526.743 141.162 525.891 141.162C525.015 141.162 524.223 140.946 523.515 140.514C522.807 140.082 522.249 139.476 521.841 138.696C521.433 137.916 521.229 137.028 521.229 136.032ZM529.581 136.05C529.581 135.306 529.431 134.658 529.131 134.106C528.831 133.554 528.423 133.134 527.907 132.846C527.403 132.546 526.845 132.396 526.233 132.396C525.621 132.396 525.063 132.54 524.559 132.828C524.055 133.116 523.653 133.536 523.353 134.088C523.053 134.64 522.903 135.288 522.903 136.032C522.903 136.788 523.053 137.448 523.353 138.012C523.653 138.564 524.055 138.99 524.559 139.29C525.063 139.578 525.621 139.722 526.233 139.722C526.845 139.722 527.403 139.578 527.907 139.29C528.423 138.99 528.831 138.564 529.131 138.012C529.431 137.448 529.581 136.794 529.581 136.05ZM538.163 132.738C538.451 132.174 538.859 131.736 539.387 131.424C539.927 131.112 540.581 130.956 541.349 130.956V132.648H540.917C539.081 132.648 538.163 133.644 538.163 135.636V141H536.525V131.136H538.163V132.738ZM545.148 136.05C545.148 135.03 545.352 134.142 545.76 133.386C546.168 132.618 546.732 132.024 547.452 131.604C548.184 131.184 549.018 130.974 549.954 130.974C551.166 130.974 552.162 131.268 552.942 131.856C553.734 132.444 554.256 133.26 554.508 134.304H552.744C552.576 133.704 552.246 133.23 551.754 132.882C551.274 132.534 550.674 132.36 549.954 132.36C549.018 132.36 548.262 132.684 547.686 133.332C547.11 133.968 546.822 134.874 546.822 136.05C546.822 137.238 547.11 138.156 547.686 138.804C548.262 139.452 549.018 139.776 549.954 139.776C550.674 139.776 551.274 139.608 551.754 139.272C552.234 138.936 552.564 138.456 552.744 137.832H554.508C554.244 138.84 553.716 139.65 552.924 140.262C552.132 140.862 551.142 141.162 549.954 141.162C549.018 141.162 548.184 140.952 547.452 140.532C546.732 140.112 546.168 139.518 545.76 138.75C545.352 137.982 545.148 137.082 545.148 136.05ZM564.109 130.956C564.853 130.956 565.525 131.118 566.125 131.442C566.725 131.754 567.193 132.228 567.529 132.864C567.877 133.5 568.051 134.274 568.051 135.186V141H566.431V135.42C566.431 134.436 566.185 133.686 565.693 133.17C565.201 132.642 564.529 132.378 563.677 132.378C562.813 132.378 562.123 132.648 561.607 133.188C561.103 133.728 560.851 134.514 560.851 135.546V141H559.213V127.68H560.851V132.54C561.175 132.036 561.619 131.646 562.183 131.37C562.759 131.094 563.401 130.956 564.109 130.956ZM579.864 129.48V127.986H583.248V141H581.592V129.48H579.864ZM596.879 129.408H590.561V133.512C590.837 133.128 591.245 132.816 591.785 132.576C592.325 132.324 592.907 132.198 593.531 132.198C594.527 132.198 595.337 132.408 595.961 132.828C596.585 133.236 597.029 133.77 597.293 134.43C597.569 135.078 597.707 135.768 597.707 136.5C597.707 137.364 597.545 138.138 597.221 138.822C596.897 139.506 596.399 140.046 595.727 140.442C595.067 140.838 594.245 141.036 593.261 141.036C592.001 141.036 590.981 140.712 590.201 140.064C589.421 139.416 588.947 138.552 588.779 137.472H590.381C590.537 138.156 590.867 138.69 591.371 139.074C591.875 139.458 592.511 139.65 593.279 139.65C594.227 139.65 594.941 139.368 595.421 138.804C595.901 138.228 596.141 137.472 596.141 136.536C596.141 135.6 595.901 134.88 595.421 134.376C594.941 133.86 594.233 133.602 593.297 133.602C592.661 133.602 592.103 133.758 591.623 134.07C591.155 134.37 590.813 134.784 590.597 135.312H589.049V127.968H596.879V129.408ZM604.366 138.732L602.35 143.574H601.252L602.566 138.732H604.366ZM615.613 139.686C617.137 138.462 618.331 137.46 619.195 136.68C620.059 135.888 620.785 135.066 621.373 134.214C621.973 133.35 622.273 132.504 622.273 131.676C622.273 130.896 622.081 130.284 621.697 129.84C621.325 129.384 620.719 129.156 619.879 129.156C619.063 129.156 618.427 129.414 617.971 129.93C617.527 130.434 617.287 131.112 617.251 131.964H615.667C615.715 130.62 616.123 129.582 616.891 128.85C617.659 128.118 618.649 127.752 619.861 127.752C621.097 127.752 622.075 128.094 622.795 128.778C623.527 129.462 623.893 130.404 623.893 131.604C623.893 132.6 623.593 133.572 622.993 134.52C622.405 135.456 621.733 136.284 620.977 137.004C620.221 137.712 619.255 138.54 618.079 139.488H624.271V140.856H615.613V139.686ZM628.685 134.358C628.685 132.294 629.021 130.686 629.693 129.534C630.365 128.37 631.541 127.788 633.221 127.788C634.889 127.788 636.059 128.37 636.731 129.534C637.403 130.686 637.739 132.294 637.739 134.358C637.739 136.458 637.403 138.09 636.731 139.254C636.059 140.418 634.889 141 633.221 141C631.541 141 630.365 140.418 629.693 139.254C629.021 138.09 628.685 136.458 628.685 134.358ZM636.119 134.358C636.119 133.314 636.047 132.432 635.903 131.712C635.771 130.98 635.489 130.392 635.057 129.948C634.637 129.504 634.025 129.282 633.221 129.282C632.405 129.282 631.781 129.504 631.349 129.948C630.929 130.392 630.647 130.98 630.503 131.712C630.371 132.432 630.305 133.314 630.305 134.358C630.305 135.438 630.371 136.344 630.503 137.076C630.647 137.808 630.929 138.396 631.349 138.84C631.781 139.284 632.405 139.506 633.221 139.506C634.025 139.506 634.637 139.284 635.057 138.84C635.489 138.396 635.771 137.808 635.903 137.076C636.047 136.344 636.119 135.438 636.119 134.358ZM642.31 139.686C643.834 138.462 645.028 137.46 645.892 136.68C646.756 135.888 647.482 135.066 648.07 134.214C648.67 133.35 648.97 132.504 648.97 131.676C648.97 130.896 648.778 130.284 648.394 129.84C648.022 129.384 647.416 129.156 646.576 129.156C645.76 129.156 645.124 129.414 644.668 129.93C644.224 130.434 643.984 131.112 643.948 131.964H642.364C642.412 130.62 642.82 129.582 643.588 128.85C644.356 128.118 645.346 127.752 646.558 127.752C647.794 127.752 648.772 128.094 649.492 128.778C650.224 129.462 650.59 130.404 650.59 131.604C650.59 132.6 650.29 133.572 649.69 134.52C649.102 135.456 648.43 136.284 647.674 137.004C646.918 137.712 645.952 138.54 644.776 139.488H650.968V140.856H642.31V139.686ZM654.949 129.48V127.986H658.333V141H656.677V129.48H654.949ZM695.264 142.908H693.626V126.69H695.264V142.908ZM729.976 134.358C729.976 132.294 730.312 130.686 730.984 129.534C731.656 128.37 732.832 127.788 734.512 127.788C736.18 127.788 737.35 128.37 738.022 129.534C738.694 130.686 739.03 132.294 739.03 134.358C739.03 136.458 738.694 138.09 738.022 139.254C737.35 140.418 736.18 141 734.512 141C732.832 141 731.656 140.418 730.984 139.254C730.312 138.09 729.976 136.458 729.976 134.358ZM737.41 134.358C737.41 133.314 737.338 132.432 737.194 131.712C737.062 130.98 736.78 130.392 736.348 129.948C735.928 129.504 735.316 129.282 734.512 129.282C733.696 129.282 733.072 129.504 732.64 129.948C732.22 130.392 731.938 130.98 731.794 131.712C731.662 132.432 731.596 133.314 731.596 134.358C731.596 135.438 731.662 136.344 731.794 137.076C731.938 137.808 732.22 138.396 732.64 138.84C733.072 139.284 733.696 139.506 734.512 139.506C735.316 139.506 735.928 139.284 736.348 138.84C736.78 138.396 737.062 137.808 737.194 137.076C737.338 136.344 737.41 135.438 737.41 134.358ZM745.904 137.508C746.024 138.192 746.3 138.72 746.732 139.092C747.176 139.464 747.77 139.65 748.514 139.65C749.51 139.65 750.242 139.26 750.71 138.48C751.19 137.7 751.418 136.386 751.394 134.538C751.142 135.078 750.722 135.504 750.134 135.816C749.546 136.116 748.892 136.266 748.172 136.266C747.368 136.266 746.648 136.104 746.012 135.78C745.388 135.444 744.896 134.958 744.536 134.322C744.176 133.686 743.996 132.918 743.996 132.018C743.996 130.734 744.368 129.702 745.112 128.922C745.856 128.13 746.912 127.734 748.28 127.734C749.96 127.734 751.136 128.28 751.808 129.372C752.492 130.464 752.834 132.09 752.834 134.25C752.834 135.762 752.696 137.01 752.42 137.994C752.156 138.978 751.7 139.728 751.052 140.244C750.416 140.76 749.54 141.018 748.424 141.018C747.2 141.018 746.246 140.688 745.562 140.028C744.878 139.368 744.488 138.528 744.392 137.508H745.904ZM748.442 134.88C749.246 134.88 749.906 134.634 750.422 134.142C750.938 133.638 751.196 132.96 751.196 132.108C751.196 131.208 750.944 130.482 750.44 129.93C749.936 129.378 749.228 129.102 748.316 129.102C747.476 129.102 746.804 129.366 746.3 129.894C745.808 130.422 745.562 131.118 745.562 131.982C745.562 132.858 745.808 133.56 746.3 134.088C746.792 134.616 747.506 134.88 748.442 134.88ZM758.448 141.108C758.136 141.108 757.872 141 757.656 140.784C757.44 140.568 757.332 140.304 757.332 139.992C757.332 139.68 757.44 139.416 757.656 139.2C757.872 138.984 758.136 138.876 758.448 138.876C758.748 138.876 759 138.984 759.204 139.2C759.42 139.416 759.528 139.68 759.528 139.992C759.528 140.304 759.42 140.568 759.204 140.784C759 141 758.748 141.108 758.448 141.108ZM758.448 133.404C758.136 133.404 757.872 133.296 757.656 133.08C757.44 132.864 757.332 132.6 757.332 132.288C757.332 131.976 757.44 131.712 757.656 131.496C757.872 131.28 758.136 131.172 758.448 131.172C758.748 131.172 759 131.28 759.204 131.496C759.42 131.712 759.528 131.976 759.528 132.288C759.528 132.6 759.42 132.864 759.204 133.08C759 133.296 758.748 133.404 758.448 133.404ZM763.612 138.102V136.86L769.93 128.112H771.892V136.68H773.692V138.102H771.892V141H770.272V138.102H763.612ZM770.344 129.822L765.502 136.68H770.344V129.822ZM777.453 138.102V136.86L783.771 128.112H785.733V136.68H787.533V138.102H785.733V141H784.113V138.102H777.453ZM784.185 129.822L779.343 136.68H784.185V129.822ZM798.666 136.032C798.666 135.024 798.87 134.142 799.278 133.386C799.686 132.618 800.244 132.024 800.952 131.604C801.672 131.184 802.47 130.974 803.346 130.974C804.21 130.974 804.96 131.16 805.596 131.532C806.232 131.904 806.706 132.372 807.018 132.936V131.136H808.674V141H807.018V139.164C806.694 139.74 806.208 140.22 805.56 140.604C804.924 140.976 804.18 141.162 803.328 141.162C802.452 141.162 801.66 140.946 800.952 140.514C800.244 140.082 799.686 139.476 799.278 138.696C798.87 137.916 798.666 137.028 798.666 136.032ZM807.018 136.05C807.018 135.306 806.868 134.658 806.568 134.106C806.268 133.554 805.86 133.134 805.344 132.846C804.84 132.546 804.282 132.396 803.67 132.396C803.058 132.396 802.5 132.54 801.996 132.828C801.492 133.116 801.09 133.536 800.79 134.088C800.49 134.64 800.34 135.288 800.34 136.032C800.34 136.788 800.49 137.448 800.79 138.012C801.09 138.564 801.492 138.99 801.996 139.29C802.5 139.578 803.058 139.722 803.67 139.722C804.282 139.722 804.84 139.578 805.344 139.29C805.86 138.99 806.268 138.564 806.568 138.012C806.868 137.448 807.018 136.794 807.018 136.05ZM825.824 130.956C826.592 130.956 827.276 131.118 827.876 131.442C828.476 131.754 828.95 132.228 829.298 132.864C829.646 133.5 829.82 134.274 829.82 135.186V141H828.2V135.42C828.2 134.436 827.954 133.686 827.462 133.17C826.982 132.642 826.328 132.378 825.5 132.378C824.648 132.378 823.97 132.654 823.466 133.206C822.962 133.746 822.71 134.532 822.71 135.564V141H821.09V135.42C821.09 134.436 820.844 133.686 820.352 133.17C819.872 132.642 819.218 132.378 818.39 132.378C817.538 132.378 816.86 132.654 816.356 133.206C815.852 133.746 815.6 134.532 815.6 135.564V141H813.962V131.136H815.6V132.558C815.924 132.042 816.356 131.646 816.896 131.37C817.448 131.094 818.054 130.956 818.714 130.956C819.542 130.956 820.274 131.142 820.91 131.514C821.546 131.886 822.02 132.432 822.332 133.152C822.608 132.456 823.064 131.916 823.7 131.532C824.336 131.148 825.044 130.956 825.824 130.956Z" fill="black"/>
<path d="M109.923 192.285C141.819 207.482 193.535 207.482 225.431 192.285C257.326 177.088 257.326 152.445 225.431 137.247C193.535 122.05 141.819 122.05 109.923 137.247C78.0277 152.445 78.0235 177.088 109.923 192.285Z" fill="#F5F5F5"/>
<path d="M225.137 165.531L206.601 154.821C206.295 154.666 205.959 154.578 205.616 154.562C205.273 154.546 204.93 154.603 204.611 154.729L183.878 164.308C183.318 164.565 183.298 165.03 183.832 165.336L206.937 178.676C207.231 178.827 207.559 178.897 207.889 178.88C208.219 178.864 208.539 178.76 208.816 178.581L225.199 166.746C225.311 166.686 225.405 166.595 225.468 166.484C225.531 166.373 225.56 166.246 225.554 166.119C225.547 165.992 225.505 165.869 225.431 165.764C225.357 165.66 225.255 165.579 225.137 165.531V165.531Z" fill="#E0E0E0"/>
<path d="M101.232 172.792L119.763 162.085C120.069 161.93 120.404 161.841 120.747 161.825C121.089 161.81 121.431 161.867 121.75 161.994L142.483 171.569C143.042 171.83 143.063 172.29 142.528 172.601L119.427 185.937C119.133 186.087 118.804 186.158 118.473 186.141C118.143 186.124 117.823 186.021 117.545 185.841L101.17 174.011C101.056 173.952 100.962 173.861 100.898 173.749C100.834 173.637 100.804 173.51 100.81 173.382C100.817 173.253 100.86 173.13 100.935 173.025C101.01 172.92 101.113 172.84 101.232 172.792V172.792Z" fill="#E0E0E0"/>
<path d="M222.437 150.745C222.437 150.745 222.714 144.297 225.542 139.109C228.37 133.922 232.529 130.517 236.585 129.904C240.64 129.29 244.198 132.806 240.018 135.709C235.838 138.612 228.267 141.771 225.376 151.661L222.437 150.745Z" fill="#E8D1C5"/>
<path opacity="0.2" d="M222.437 150.745C222.437 150.745 222.714 144.297 225.542 139.109C228.37 133.922 232.529 130.517 236.585 129.904C240.64 129.29 244.198 132.806 240.018 135.709C235.838 138.612 228.267 141.771 225.376 151.661L222.437 150.745Z" fill="black"/>
<path d="M223.515 148.999H223.47C223.415 148.98 223.37 148.94 223.344 148.888C223.318 148.836 223.314 148.776 223.333 148.721C226.886 137.82 234.769 132.815 238.443 131.691C238.498 131.675 238.557 131.682 238.607 131.709C238.657 131.736 238.695 131.782 238.712 131.836C238.721 131.864 238.725 131.893 238.722 131.921C238.72 131.95 238.711 131.978 238.698 132.004C238.684 132.029 238.666 132.052 238.643 132.07C238.621 132.088 238.595 132.102 238.567 132.11C234.972 133.209 227.247 138.126 223.747 148.858C223.73 148.904 223.698 148.943 223.656 148.969C223.614 148.994 223.564 149.005 223.515 148.999V148.999Z" fill="white"/>
<path d="M245.417 147.581C245.09 148.493 244.153 149.02 243.282 149.447C242.411 149.874 241.457 150.33 241.034 151.201C240.172 152.959 241.947 155.223 241.034 156.944C240.812 157.29 240.522 157.588 240.181 157.819C239.84 158.05 239.456 158.209 239.052 158.287C238.385 158.43 237.711 158.538 237.033 158.611C236.71 158.629 236.386 158.629 236.063 158.611C235.121 158.54 234.105 158.565 233.284 159.104C231.995 159.954 231.7 161.679 230.979 163.043C230.53 163.852 229.91 164.553 229.163 165.098C228.417 165.644 227.561 166.021 226.654 166.203C226.057 166.323 224.941 166.514 224.303 166.203C224.255 166.184 224.209 166.16 224.166 166.133V166.133C224.075 166.041 223.959 165.929 223.909 165.867C223.897 165.855 223.887 165.841 223.88 165.826C223.581 164.967 223.905 164.026 223.88 163.122V162.956C223.768 161.907 223.664 160.883 223.565 159.813C223.38 157.878 223.225 155.943 223.1 154.008C223.022 152.764 222.773 151.387 223.225 150.168C223.718 148.825 225.182 148.696 225.642 147.378C225.829 146.855 225.908 146.299 226.086 145.773C226.365 144.996 226.852 144.31 227.494 143.791C228.136 143.272 228.908 142.939 229.727 142.829C232.273 142.518 234.703 144.425 237.249 144.073C237.899 143.935 238.543 143.765 239.177 143.563C241.221 143.028 243.651 143.451 244.94 145.118C245.214 145.459 245.4 145.861 245.483 146.29C245.566 146.719 245.543 147.162 245.417 147.581Z" fill="#E8D1C5"/>
<g opacity="0.07">
<path opacity="0.07" d="M245.417 147.581C245.09 148.493 244.153 149.02 243.282 149.447C242.411 149.874 241.457 150.33 241.034 151.201C240.172 152.959 241.947 155.223 241.034 156.944C240.812 157.29 240.522 157.588 240.181 157.819C239.84 158.05 239.456 158.209 239.052 158.287C238.392 158.462 237.715 158.57 237.033 158.611C236.71 158.629 236.386 158.629 236.063 158.611C235.121 158.54 234.105 158.565 233.284 159.104C231.995 159.954 231.7 161.679 230.979 163.043C230.53 163.852 229.91 164.553 229.163 165.098C228.417 165.644 227.561 166.021 226.654 166.203C226.057 166.323 224.941 166.514 224.303 166.203C224.255 166.184 224.209 166.16 224.166 166.133V166.133C224.128 166.109 224.092 166.082 224.058 166.054C224 165.999 223.949 165.936 223.909 165.867C223.897 165.855 223.887 165.841 223.88 165.826C223.486 165.129 223.88 163.91 223.88 163.122V162.956C223.768 161.907 223.664 160.883 223.565 159.813C223.38 157.878 223.225 155.943 223.1 154.008C223.022 152.764 222.773 151.387 223.225 150.168C223.718 148.825 225.182 148.696 225.642 147.378C225.829 146.855 225.908 146.299 226.086 145.773C226.365 144.996 226.852 144.31 227.494 143.791C228.136 143.272 228.908 142.939 229.727 142.829C232.273 142.518 234.703 144.425 237.249 144.073C237.899 143.935 238.543 143.765 239.177 143.563C241.221 143.028 243.651 143.451 244.94 145.118C245.214 145.459 245.4 145.861 245.483 146.29C245.566 146.719 245.543 147.162 245.417 147.581Z" fill="#263238"/>
</g>
<path d="M223.362 161.828C223.305 161.816 223.256 161.783 223.224 161.735C223.192 161.687 223.181 161.628 223.192 161.571C225.787 148.082 239.6 145.188 242.884 145.192C242.941 145.193 242.996 145.217 243.036 145.258C243.077 145.299 243.099 145.354 243.099 145.412C243.099 145.441 243.094 145.469 243.083 145.496C243.071 145.522 243.055 145.546 243.035 145.566C243.014 145.586 242.99 145.602 242.963 145.612C242.937 145.623 242.908 145.628 242.88 145.628C239.67 145.628 226.161 148.456 223.619 161.654C223.608 161.711 223.574 161.762 223.526 161.795C223.478 161.827 223.419 161.839 223.362 161.828V161.828Z" fill="white"/>
<path d="M238.388 154.012C238.343 154.009 238.301 153.99 238.268 153.958C236.901 152.932 235.324 152.221 233.651 151.875C231.977 151.528 230.248 151.556 228.586 151.955C228.537 151.954 228.49 151.937 228.453 151.906C228.415 151.875 228.389 151.832 228.378 151.785C228.367 151.737 228.372 151.688 228.392 151.644C228.413 151.599 228.447 151.563 228.49 151.541C230.219 151.128 232.018 151.103 233.758 151.466C235.497 151.829 237.135 152.573 238.554 153.643C238.597 153.682 238.624 153.736 238.628 153.794C238.631 153.852 238.613 153.91 238.575 153.954C238.55 153.977 238.521 153.995 238.488 154.005C238.456 154.015 238.422 154.017 238.388 154.012V154.012Z" fill="white"/>
<path d="M132.187 160.331C132.193 160.463 132.231 160.591 132.296 160.705C132.362 160.818 132.454 160.915 132.564 160.987L151.327 171.818C151.444 171.877 151.573 171.908 151.705 171.908C151.836 171.908 151.965 171.877 152.082 171.818L206.336 140.498C206.447 140.427 206.54 140.331 206.606 140.217C206.672 140.103 206.71 139.975 206.717 139.843V84.9547L187.199 73.6843L132.187 105.435V160.331Z" fill="#37474F"/>
<path d="M132.187 160.331C132.193 160.463 132.231 160.591 132.296 160.705C132.362 160.818 132.454 160.915 132.564 160.987L151.327 171.818C151.443 171.881 151.573 171.912 151.705 171.909V113.056L133.7 104.568L132.187 105.435V160.331Z" fill="#263238"/>
<path d="M151.136 120.483L129.205 107.819C129.039 107.712 128.901 107.567 128.802 107.396C128.703 107.225 128.647 107.033 128.637 106.836V106.098C128.647 105.901 128.703 105.709 128.802 105.538C128.901 105.367 129.039 105.222 129.205 105.115L186.627 71.9635C186.803 71.8732 186.997 71.8262 187.195 71.8262C187.392 71.8262 187.587 71.8732 187.763 71.9635L209.698 84.6272C209.864 84.7346 210.001 84.8797 210.099 85.0506C210.197 85.2214 210.253 85.4131 210.262 85.6099V86.3604C210.253 86.5572 210.197 86.7489 210.099 86.9197C210.001 87.0906 209.864 87.2357 209.698 87.3432L152.272 120.483C152.097 120.573 151.902 120.62 151.704 120.62C151.507 120.62 151.312 120.573 151.136 120.483V120.483Z" fill="#263238"/>
<path d="M209.698 85.2823L152.272 118.434C152.096 118.525 151.901 118.572 151.704 118.572C151.506 118.572 151.312 118.525 151.136 118.434L129.204 105.771C129.135 105.748 129.075 105.705 129.032 105.646C128.989 105.587 128.966 105.516 128.966 105.443C128.966 105.37 128.989 105.299 129.032 105.24C129.075 105.182 129.135 105.138 129.204 105.115L186.626 71.9635C186.802 71.8732 186.997 71.8262 187.195 71.8262C187.392 71.8262 187.587 71.8732 187.763 71.9635L209.698 84.6272C209.765 84.6515 209.824 84.696 209.865 84.7546C209.906 84.8132 209.928 84.8831 209.928 84.9547C209.928 85.0264 209.906 85.0962 209.865 85.1548C209.824 85.2135 209.765 85.258 209.698 85.2823V85.2823Z" fill="#455A64"/>
<path d="M151.704 118.571V120.62C151.508 120.624 151.313 120.576 151.14 120.483L129.205 107.819C129.039 107.712 128.901 107.567 128.802 107.396C128.703 107.225 128.647 107.033 128.637 106.836V106.098C128.646 105.923 128.692 105.751 128.772 105.594C128.852 105.438 128.964 105.3 129.101 105.19C128.894 105.368 128.927 105.605 129.205 105.771L151.14 118.434C151.314 118.526 151.508 118.573 151.704 118.571V118.571Z" fill="#37474F"/>
<path d="M105.813 122.316V173.924C105.808 174.052 105.771 174.177 105.707 174.288C105.643 174.399 105.553 174.494 105.444 174.563L104.453 175.135C104.339 175.191 104.214 175.22 104.086 175.22C103.959 175.22 103.834 175.191 103.719 175.135L102.728 174.563C102.622 174.492 102.533 174.397 102.469 174.287C102.405 174.176 102.367 174.052 102.359 173.924V122.316C102.359 122.206 102.403 122.1 102.481 122.022C102.559 121.945 102.664 121.901 102.774 121.901H105.382C105.438 121.899 105.494 121.908 105.546 121.928C105.598 121.947 105.646 121.978 105.686 122.016C105.727 122.055 105.759 122.101 105.78 122.153C105.802 122.204 105.814 122.26 105.813 122.316Z" fill="#E8D1C5"/>
<path opacity="0.1" d="M105.813 122.316V173.924C105.808 174.052 105.771 174.177 105.707 174.288C105.643 174.399 105.553 174.494 105.444 174.563L104.453 175.135C104.339 175.191 104.214 175.22 104.086 175.22C103.959 175.22 103.834 175.191 103.719 175.135L102.728 174.563C102.622 174.492 102.533 174.397 102.469 174.287C102.405 174.176 102.367 174.052 102.359 173.924V122.316C102.359 122.206 102.403 122.1 102.481 122.022C102.559 121.945 102.664 121.901 102.774 121.901H105.382C105.438 121.899 105.494 121.908 105.546 121.928C105.598 121.947 105.646 121.978 105.686 122.016C105.727 122.055 105.759 122.101 105.78 122.153C105.802 122.204 105.814 122.26 105.813 122.316Z" fill="black"/>
<path d="M102.782 121.893H103.661C103.771 121.893 103.877 121.936 103.954 122.014C104.032 122.092 104.076 122.197 104.076 122.307V174.923C104.076 175.156 103.91 175.251 103.707 175.135L102.716 174.563C102.609 174.492 102.52 174.397 102.456 174.287C102.392 174.176 102.355 174.052 102.347 173.924V122.316C102.346 122.259 102.356 122.202 102.378 122.149C102.399 122.097 102.432 122.049 102.472 122.009C102.513 121.97 102.562 121.939 102.615 121.919C102.668 121.899 102.725 121.89 102.782 121.893V121.893Z" fill="#E8D1C5"/>
<path d="M120.824 130.911V182.52C120.816 182.648 120.779 182.772 120.715 182.882C120.651 182.993 120.562 183.088 120.455 183.158L119.464 183.731C119.35 183.788 119.223 183.817 119.095 183.817C118.967 183.817 118.841 183.788 118.726 183.731L117.735 183.158C117.629 183.088 117.54 182.993 117.476 182.882C117.412 182.772 117.374 182.648 117.366 182.52V130.911C117.366 130.801 117.41 130.696 117.488 130.618C117.565 130.54 117.671 130.497 117.781 130.497H120.41C120.52 130.497 120.625 130.54 120.703 130.618C120.781 130.696 120.824 130.801 120.824 130.911Z" fill="#E8D1C5"/>
<path opacity="0.1" d="M120.824 130.911V182.52C120.816 182.648 120.779 182.772 120.715 182.882C120.651 182.993 120.562 183.088 120.455 183.158L119.464 183.731C119.35 183.788 119.223 183.817 119.095 183.817C118.967 183.817 118.841 183.788 118.726 183.731L117.735 183.158C117.629 183.088 117.54 182.993 117.476 182.882C117.412 182.772 117.374 182.648 117.366 182.52V130.911C117.366 130.801 117.41 130.696 117.488 130.618C117.565 130.54 117.671 130.497 117.781 130.497H120.41C120.52 130.497 120.625 130.54 120.703 130.618C120.781 130.696 120.824 130.801 120.824 130.911Z" fill="black"/>
<path d="M117.801 130.484H118.676C118.786 130.484 118.891 130.528 118.969 130.606C119.047 130.684 119.091 130.789 119.091 130.899V183.515C119.091 183.751 118.925 183.847 118.722 183.731L117.731 183.158C117.624 183.088 117.535 182.993 117.471 182.882C117.407 182.772 117.37 182.648 117.362 182.52V130.911C117.36 130.854 117.37 130.796 117.392 130.743C117.413 130.689 117.446 130.641 117.487 130.601C117.528 130.561 117.578 130.53 117.632 130.509C117.686 130.489 117.744 130.481 117.801 130.484Z" fill="#E8D1C5"/>
<path d="M140.355 122.473V171.241C140.349 171.371 140.312 171.498 140.248 171.611C140.184 171.724 140.094 171.82 139.986 171.892L138.995 172.464C138.88 172.521 138.754 172.551 138.626 172.551C138.498 172.551 138.371 172.521 138.257 172.464L137.266 171.892C137.159 171.821 137.07 171.727 137.006 171.616C136.942 171.505 136.905 171.381 136.896 171.254V122.486C136.896 122.376 136.94 122.27 137.018 122.192C137.096 122.115 137.201 122.071 137.311 122.071H139.915C139.971 122.068 140.026 122.075 140.079 122.094C140.131 122.112 140.179 122.141 140.22 122.179C140.261 122.216 140.294 122.262 140.317 122.312C140.34 122.363 140.353 122.418 140.355 122.473Z" fill="#E8D1C5"/>
<path opacity="0.1" d="M140.355 122.473V171.241C140.349 171.371 140.312 171.498 140.248 171.611C140.184 171.724 140.094 171.82 139.986 171.892L138.995 172.464C138.88 172.521 138.754 172.551 138.626 172.551C138.498 172.551 138.371 172.521 138.257 172.464L137.266 171.892C137.159 171.821 137.07 171.727 137.006 171.616C136.942 171.505 136.905 171.381 136.896 171.254V122.486C136.896 122.376 136.94 122.27 137.018 122.192C137.096 122.115 137.201 122.071 137.311 122.071H139.915C139.971 122.068 140.026 122.075 140.079 122.094C140.131 122.112 140.179 122.141 140.22 122.179C140.261 122.216 140.294 122.262 140.317 122.312C140.34 122.363 140.353 122.418 140.355 122.473Z" fill="black"/>
<path d="M137.324 122.058H138.198C138.308 122.058 138.414 122.102 138.492 122.18C138.569 122.258 138.613 122.363 138.613 122.473V172.232C138.613 172.469 138.447 172.564 138.244 172.448L137.253 171.876C137.146 171.805 137.058 171.71 136.994 171.6C136.93 171.489 136.892 171.365 136.884 171.237V122.486C136.882 122.428 136.892 122.37 136.914 122.317C136.936 122.264 136.968 122.215 137.009 122.175C137.051 122.135 137.1 122.104 137.154 122.084C137.208 122.064 137.266 122.055 137.324 122.058Z" fill="#E8D1C5"/>
<path d="M138.625 160.385L136.896 159.382L120.832 168.608V170.656L138.625 160.385Z" fill="#E8D1C5"/>
<path opacity="0.2" d="M138.625 160.385L136.896 159.382L120.832 168.608V170.656L138.625 160.385Z" fill="black"/>
<path d="M138.625 160.385V162.43L120.832 172.705V170.656L138.625 160.385Z" fill="#E8D1C5"/>
<path opacity="0.1" d="M138.625 160.385V162.43L120.832 172.705V170.656L138.625 160.385Z" fill="black"/>
<path d="M104.089 162.973L105.814 161.974L117.375 168.608V170.657L104.089 162.973Z" fill="#E8D1C5"/>
<path opacity="0.15" d="M104.089 162.973L105.814 161.974L117.375 168.608V170.657L104.089 162.973Z" fill="black"/>
<path d="M104.089 162.973V165.021L117.375 172.705V170.657L104.089 162.973Z" fill="#E8D1C5"/>
<path d="M114.488 96.7269C114.481 96.8541 114.495 96.9818 114.53 97.1042C115.749 101.665 116.363 108.089 116.471 114.167L119.51 112.691C119.328 106.82 118.681 100.766 117.528 96.3081C117.275 95.3627 116.4 95.0931 115.513 95.5244C115.252 95.6184 115.021 95.7788 114.841 95.9897C114.661 96.2006 114.54 96.4547 114.488 96.7269V96.7269Z" fill="#455A64"/>
<path d="M116.213 98.1741C117.252 100.636 117.773 103.285 117.743 105.957L103.085 114.441L100.24 107.392L116.213 98.1741Z" fill="#E8D1C5"/>
<path d="M98.876 107.143L114.845 97.9211L116.213 98.1741L100.24 107.396L98.876 107.143Z" fill="#E8D1C5"/>
<path opacity="0.4" d="M98.876 107.143L114.845 97.9211L116.213 98.1741L100.24 107.396L98.876 107.143Z" fill="white"/>
<path d="M98.018 106.476C100.127 111.679 101.585 117.123 102.359 122.685L105.192 120.889C104.38 115.532 102.936 110.29 100.892 105.273C100.808 105.069 100.681 104.886 100.521 104.734C100.361 104.583 100.171 104.467 99.963 104.395C99.755 104.322 99.5339 104.295 99.3145 104.314C99.095 104.333 98.8821 104.398 98.6897 104.506V104.506C98.3542 104.693 98.0999 104.998 97.9758 105.362C97.8518 105.725 97.8668 106.122 98.018 106.476Z" fill="#455A64"/>
<path d="M102.359 124.891V125.272C102.378 125.62 102.47 125.96 102.629 126.27C102.787 126.58 103.009 126.853 103.28 127.072L118.183 138.052C118.464 138.233 118.788 138.338 119.122 138.354C119.456 138.371 119.788 138.3 120.086 138.147L139.898 126.711C140.184 126.525 140.422 126.274 140.593 125.978C140.764 125.683 140.862 125.351 140.881 125.011V124.596C140.864 124.261 140.76 123.937 140.579 123.654C140.398 123.372 140.146 123.142 139.849 122.987L120.542 114.3C120.219 114.171 119.872 114.112 119.525 114.128C119.177 114.144 118.837 114.234 118.527 114.391L103.342 123.19C103.056 123.376 102.818 123.627 102.647 123.923C102.476 124.218 102.378 124.55 102.359 124.891Z" fill="#455A64"/>
<path d="M103.371 123.17H103.242C102.944 123.351 102.692 123.599 102.505 123.894C102.318 124.189 102.201 124.523 102.164 124.87V125.251C102.202 125.605 102.312 125.946 102.487 126.256C102.661 126.565 102.897 126.836 103.18 127.051L118.133 138.031C118.425 138.213 118.759 138.316 119.103 138.33C119.103 138.33 119.157 134.241 119.165 134.146L103.371 123.17Z" fill="#263238"/>
<path d="M140.727 121.934V122.349C140.726 122.684 140.643 123.013 140.487 123.309C140.33 123.605 140.104 123.859 139.828 124.049L120.044 135.485C119.769 135.637 119.458 135.71 119.144 135.697C118.797 135.691 118.458 135.584 118.17 135.39L103.176 124.389C102.893 124.174 102.657 123.903 102.483 123.594C102.309 123.284 102.201 122.942 102.164 122.589V122.208C102.202 121.86 102.319 121.526 102.507 121.231C102.694 120.937 102.948 120.689 103.246 120.508L107.513 118.069L118.514 111.729C118.827 111.572 119.169 111.483 119.518 111.467C119.868 111.452 120.216 111.51 120.542 111.638L139.774 120.325C140.062 120.484 140.302 120.717 140.469 121C140.637 121.283 140.726 121.605 140.727 121.934V121.934Z" fill="#E8D1C5"/>
<path opacity="0.1" d="M119.165 133.014V135.676C118.815 135.67 118.474 135.563 118.182 135.369L103.18 124.389C102.897 124.174 102.66 123.904 102.486 123.594C102.311 123.285 102.201 122.943 102.164 122.589V122.208C102.202 121.86 102.319 121.526 102.507 121.231C102.694 120.937 102.948 120.689 103.246 120.508L107.513 118.069L103.321 120.491C103.197 120.538 103.09 120.62 103.013 120.727C102.935 120.834 102.89 120.961 102.883 121.093C102.877 121.225 102.909 121.356 102.976 121.47C103.042 121.584 103.141 121.676 103.259 121.735L118.162 132.703C118.458 132.903 118.807 133.011 119.165 133.014Z" fill="black"/>
<path opacity="0.3" d="M103.343 120.508L118.54 111.729C118.85 111.571 119.19 111.482 119.538 111.466C119.885 111.45 120.232 111.509 120.555 111.638L139.862 120.325C140.434 120.586 140.455 121.055 139.911 121.366L120.087 132.802C119.788 132.954 119.456 133.025 119.122 133.007C118.787 132.99 118.464 132.885 118.183 132.703L103.28 121.739C103.166 121.679 103.071 121.587 103.007 121.474C102.943 121.361 102.912 121.233 102.919 121.104C102.925 120.974 102.969 120.849 103.044 120.744C103.119 120.638 103.223 120.556 103.343 120.508V120.508Z" fill="white"/>
<path d="M220.675 114.478V166.087C220.69 166.218 220.735 166.344 220.807 166.455C220.879 166.566 220.976 166.658 221.089 166.726L222.105 167.298C222.221 167.356 222.349 167.386 222.479 167.386C222.608 167.386 222.736 167.356 222.852 167.298L223.942 166.726C224.063 166.66 224.168 166.569 224.249 166.459C224.331 166.348 224.388 166.221 224.415 166.087V114.478C224.415 114.246 224.029 113.977 223.793 113.977H221.172C221.045 113.993 220.927 114.051 220.837 114.142C220.747 114.233 220.69 114.351 220.675 114.478V114.478Z" fill="#E8D1C5"/>
<path opacity="0.1" d="M220.675 114.478V166.087C220.69 166.218 220.735 166.344 220.807 166.455C220.879 166.566 220.976 166.658 221.089 166.726L222.105 167.298C222.221 167.356 222.349 167.386 222.479 167.386C222.608 167.386 222.736 167.356 222.852 167.298L223.942 166.726C224.063 166.66 224.168 166.569 224.249 166.459C224.331 166.348 224.388 166.221 224.415 166.087V114.478C224.415 114.246 224.029 113.977 223.793 113.977H221.172C221.045 113.993 220.927 114.051 220.837 114.142C220.747 114.233 220.69 114.351 220.675 114.478V114.478Z" fill="black"/>
<path d="M223.785 113.977H222.91C222.674 113.977 222.334 114.246 222.334 114.478V167.086C222.335 167.137 222.349 167.187 222.377 167.231C222.405 167.274 222.444 167.308 222.49 167.33C222.536 167.352 222.588 167.361 222.638 167.355C222.689 167.349 222.738 167.33 222.778 167.298L223.901 166.726C224.105 166.609 224.407 166.311 224.407 166.087V114.478C224.407 114.246 224.022 113.977 223.785 113.977Z" fill="#E8D1C5"/>
<path d="M205.747 123.074V174.683C205.755 174.81 205.792 174.934 205.855 175.045C205.918 175.156 206.006 175.25 206.112 175.321L207.103 175.894C207.217 175.95 207.343 175.979 207.47 175.979C207.597 175.979 207.723 175.95 207.837 175.894L208.762 175.321C208.861 175.248 208.94 175.151 208.993 175.04C209.046 174.929 209.07 174.806 209.064 174.683V123.074C209.064 122.838 209.006 122.685 208.77 122.685H206.166C206.112 122.681 206.058 122.688 206.008 122.705C205.957 122.723 205.911 122.751 205.871 122.788C205.832 122.825 205.801 122.869 205.779 122.918C205.758 122.967 205.747 123.021 205.747 123.074V123.074Z" fill="#E8D1C5"/>
<path opacity="0.1" d="M205.747 123.074V174.683C205.755 174.81 205.792 174.934 205.855 175.045C205.918 175.156 206.006 175.25 206.112 175.321L207.103 175.894C207.217 175.95 207.343 175.979 207.47 175.979C207.597 175.979 207.723 175.95 207.837 175.894L208.762 175.321C208.861 175.248 208.94 175.151 208.993 175.04C209.046 174.929 209.07 174.806 209.064 174.683V123.074C209.064 122.838 209.006 122.685 208.77 122.685H206.166C206.112 122.681 206.058 122.688 206.008 122.705C205.957 122.723 205.911 122.751 205.871 122.788C205.832 122.825 205.801 122.869 205.779 122.918C205.758 122.967 205.747 123.021 205.747 123.074V123.074Z" fill="black"/>
<path d="M208.77 122.685H207.903C207.671 122.685 207.418 122.838 207.418 123.074V175.682C207.418 175.914 207.613 176.01 207.833 175.894L208.774 175.321C208.875 175.249 208.957 175.153 209.012 175.042C209.068 174.93 209.096 174.807 209.093 174.683V123.074C209.064 122.85 209.006 122.685 208.77 122.685Z" fill="#E8D1C5"/>
<path d="M186.259 114.636V163.404C186.263 163.532 186.296 163.658 186.357 163.771C186.417 163.883 186.503 163.981 186.607 164.055L187.586 164.627C187.7 164.684 187.825 164.713 187.953 164.713C188.08 164.713 188.206 164.684 188.32 164.627L189.257 164.055C189.358 163.983 189.44 163.886 189.495 163.775C189.551 163.664 189.579 163.541 189.576 163.417V114.648C189.576 114.412 189.485 114.391 189.248 114.391H186.644C186.408 114.391 186.259 114.412 186.259 114.636Z" fill="#E8D1C5"/>
<path opacity="0.1" d="M186.259 114.636V163.404C186.263 163.532 186.296 163.658 186.357 163.771C186.417 163.883 186.503 163.981 186.607 164.055L187.586 164.627C187.7 164.684 187.825 164.713 187.953 164.713C188.08 164.713 188.206 164.684 188.32 164.627L189.257 164.055C189.358 163.983 189.44 163.886 189.495 163.775C189.551 163.664 189.579 163.541 189.576 163.417V114.648C189.576 114.412 189.485 114.391 189.248 114.391H186.644C186.408 114.391 186.259 114.412 186.259 114.636Z" fill="black"/>
<path d="M189.244 114.391H188.365C188.133 114.391 187.913 114.412 187.913 114.648V164.408C187.913 164.644 188.091 164.739 188.295 164.623L189.244 164.051C189.346 163.978 189.428 163.882 189.485 163.771C189.542 163.66 189.572 163.537 189.572 163.412V114.648C189.576 114.412 189.485 114.391 189.244 114.391Z" fill="#E8D1C5"/>
<path d="M187.95 152.548L189.679 151.545L205.747 160.771V162.819L187.95 152.548Z" fill="#E8D1C5"/>
<path opacity="0.2" d="M187.95 152.548L189.679 151.545L205.747 160.771V162.819L187.95 152.548Z" fill="black"/>
<path d="M187.917 152.548V154.593L205.747 164.868V162.819L187.917 152.548Z" fill="#E8D1C5"/>
<path opacity="0.1" d="M187.917 152.548V154.593L205.747 164.868V162.819L187.917 152.548Z" fill="black"/>
<path d="M222.416 155.14L220.658 154.136L209.064 160.771V162.819L222.416 155.14Z" fill="#E8D1C5"/>
<path opacity="0.15" d="M222.416 155.14L220.658 154.136L209.064 160.771V162.819L222.416 155.14Z" fill="black"/>
<path d="M222.334 155.14V157.184L209.064 164.868V162.819L222.334 155.14Z" fill="#E8D1C5"/>
<path d="M212.079 88.8691C212.087 88.9961 212.074 89.1234 212.042 89.2465C210.823 93.8077 210.209 100.231 210.101 106.31L207.074 104.833C207.257 98.9619 207.904 92.9079 209.056 88.4503C209.305 87.5049 210.184 87.2353 211.072 87.6666C211.33 87.7619 211.558 87.923 211.735 88.1339C211.912 88.3449 212.03 88.5983 212.079 88.8691Z" fill="#455A64"/>
<path d="M210.359 90.337C209.317 92.7982 208.797 95.448 208.829 98.1202L223.487 106.604L226.331 99.5549L210.359 90.337Z" fill="#E8D1C5"/>
<path opacity="0.2" d="M210.359 90.337C209.317 92.7982 208.797 95.448 208.829 98.1202L223.487 106.604L226.331 99.5549L210.359 90.337Z" fill="black"/>
<path d="M227.695 99.3061L211.727 90.084L210.358 90.337L226.331 99.559L227.695 99.3061Z" fill="#E8D1C5"/>
<path opacity="0.4" d="M227.695 99.3061L211.727 90.084L210.358 90.337L226.331 99.559L227.695 99.3061Z" fill="white"/>
<path d="M228.55 98.6385C226.442 103.842 224.985 109.287 224.212 114.848L221.376 113.052C222.191 107.695 223.636 102.454 225.68 97.436C225.764 97.2323 225.89 97.0487 226.05 96.8973C226.21 96.7459 226.401 96.6302 226.609 96.5577C226.817 96.4852 227.038 96.4576 227.257 96.4768C227.477 96.496 227.69 96.5614 227.882 96.6688V96.6688C228.217 96.8568 228.47 97.162 228.594 97.5256C228.717 97.8893 228.701 98.2857 228.55 98.6385Z" fill="#37474F"/>
<path d="M224.407 117.045V117.427C224.369 117.78 224.259 118.122 224.084 118.431C223.91 118.74 223.674 119.011 223.391 119.226L208.434 130.206C208.15 130.388 207.822 130.492 207.485 130.509C207.148 130.526 206.812 130.454 206.51 130.302L186.756 118.874C186.479 118.684 186.251 118.431 186.092 118.135C185.934 117.839 185.848 117.51 185.844 117.174V116.78C185.844 116.452 185.932 116.13 186.098 115.847C186.264 115.564 186.503 115.331 186.789 115.171L206.058 106.484C206.377 106.355 206.72 106.296 207.064 106.312C207.407 106.327 207.743 106.417 208.049 106.575L223.337 115.353C223.634 115.534 223.884 115.781 224.07 116.074C224.255 116.368 224.371 116.7 224.407 117.045Z" fill="#37474F"/>
<path d="M207.489 126.375L199.842 112.899L197.043 110.543L186.83 115.167C186.549 115.329 186.317 115.565 186.158 115.848C185.999 116.131 185.919 116.451 185.926 116.776V117.17C185.924 117.502 186.003 117.83 186.154 118.126C186.306 118.422 186.526 118.677 186.797 118.87L206.531 130.314C206.823 130.475 207.156 130.547 207.489 130.522V126.375Z" fill="#263238"/>
<path d="M185.844 114.097V114.512C185.845 114.847 185.928 115.176 186.085 115.472C186.241 115.768 186.467 116.022 186.744 116.212L206.527 127.648C206.802 127.8 207.113 127.873 207.427 127.86C207.773 127.854 208.11 127.747 208.397 127.553L223.395 116.573C223.678 116.358 223.914 116.087 224.088 115.778C224.262 115.468 224.37 115.126 224.407 114.773V114.391C224.369 114.044 224.252 113.71 224.064 113.415C223.877 113.12 223.624 112.873 223.325 112.691L219.058 110.253L208.057 103.913C207.744 103.756 207.402 103.667 207.053 103.651C206.704 103.635 206.355 103.694 206.029 103.822L186.797 112.484C186.509 112.643 186.268 112.877 186.101 113.16C185.933 113.444 185.844 113.767 185.844 114.097V114.097Z" fill="#E8D1C5"/>
<path opacity="0.1" d="M207.406 125.177V127.826C207.756 127.821 208.098 127.714 208.389 127.519L223.391 116.539C223.675 116.325 223.911 116.054 224.086 115.745C224.261 115.435 224.37 115.093 224.407 114.74V114.358C224.369 114.011 224.252 113.677 224.065 113.382C223.877 113.087 223.624 112.839 223.325 112.658L219.058 110.22L223.246 112.671C223.37 112.718 223.477 112.799 223.555 112.906C223.632 113.013 223.677 113.14 223.684 113.272C223.69 113.404 223.658 113.535 223.592 113.649C223.525 113.763 223.427 113.855 223.308 113.915L208.406 124.882C208.108 125.075 207.761 125.178 207.406 125.177Z" fill="black"/>
<path opacity="0.3" d="M223.246 112.671L208.028 103.892C207.719 103.734 207.379 103.645 207.033 103.629C206.686 103.613 206.34 103.672 206.017 103.801L186.707 112.484C186.138 112.745 186.118 113.214 186.661 113.529L206.486 124.965C206.784 125.117 207.116 125.188 207.45 125.171C207.784 125.154 208.108 125.05 208.389 124.87L223.292 113.898C223.406 113.838 223.501 113.748 223.565 113.637C223.63 113.526 223.662 113.398 223.657 113.27C223.652 113.141 223.611 113.017 223.538 112.911C223.466 112.805 223.364 112.721 223.246 112.671V112.671Z" fill="white"/>
<path d="M179.395 160.207C179.311 160.551 179.349 160.913 179.503 161.231C179.619 161.534 180.776 162.537 183.687 162.256C186.598 161.974 188.48 160.414 189.472 159.705C190.463 158.996 192.055 157.943 193.568 157.674C195.082 157.404 196.388 156.571 196.703 156.11C196.833 155.909 196.919 155.683 196.953 155.446C196.987 155.209 196.97 154.967 196.902 154.738C196.823 154.515 196.685 154.318 196.502 154.167C196.32 154.017 196.1 153.919 195.866 153.884C194.522 153.606 184.355 156.608 184.355 156.608L179.395 160.207Z" fill="#37474F"/>
<path d="M190.658 165.88C190.608 166.435 191.325 168.119 193.498 168.268C195.671 168.417 198.163 167.783 199.668 165.627C201.173 163.47 202.202 161.692 203.06 160.792C203.649 160.218 204.113 159.527 204.42 158.764C204.476 158.573 204.476 158.37 204.42 158.179C204.387 157.972 204.314 157.774 204.205 157.595C204.025 157.387 203.812 157.21 203.574 157.072C202.048 156.143 199.225 156.571 197.354 158.681C195.484 160.792 190.658 165.88 190.658 165.88Z" fill="#37474F"/>
<path d="M202.965 149.534H198.346V157.437H202.965V149.534Z" fill="#FFA8A7"/>
<path d="M194.742 150.927L189.895 152.071L188.041 144.471L193.237 143.156L194.742 150.927Z" fill="#FFA8A7"/>
<path d="M198.702 155.293L198.345 154.34C198.229 156.483 196.247 158.984 194.414 160.659C192.955 161.99 190.392 163.81 190.454 165.071C190.533 166.697 192.855 167.418 194.858 166.949C196.421 166.58 198.449 165.676 199.523 164.52C200.597 163.363 201.148 161.799 201.708 161.041C202.268 160.282 203.491 159.602 203.781 158.727C203.947 158.246 203.732 157.458 203.412 156.595C203.105 155.935 202.946 155.217 202.944 154.489V155.003C202.608 155.372 201.596 155.741 200.547 155.783C199.884 155.808 198.698 155.808 198.702 155.293Z" fill="#FFA8A7"/>
<path d="M192.499 161.754C192.499 161.754 193.743 160.953 195.816 161.804C197.761 162.608 198.885 164.544 199.183 165.121C199.209 165.169 199.218 165.224 199.21 165.278C199.202 165.331 199.176 165.381 199.138 165.419C198.357 166.207 197.41 166.81 196.366 167.183C195.322 167.556 194.207 167.69 193.104 167.576C190.952 167.31 188.663 164.594 192.499 161.754Z" fill="#455A64"/>
<path d="M189.476 150.355C189.536 151.065 189.373 151.777 189.011 152.391C188.46 153.22 187.672 153.635 186.818 154.265C185.362 155.339 181.394 156.753 180.142 157.674C179.354 158.254 179.88 159.996 181.278 160.489C182.314 160.858 185.358 160.775 187.833 159.631C189.185 159.009 191.13 157.557 192.15 157.168C193.27 156.753 195.264 156.703 196.081 155.277C196.778 154.062 196.317 153.249 195.729 152.233C195.128 151.271 194.684 150.22 194.414 149.119L194.178 149.899C193.838 150.774 191.275 151.673 190.031 151.35L189.476 150.355Z" fill="#FFA8A7"/>
<path d="M187.71 159.888C187.486 158.877 186.979 157.95 186.248 157.216C185.518 156.482 184.594 155.97 183.584 155.741C183.584 155.741 181.2 155.579 179.699 157.333C178.604 158.611 179.487 160.448 179.487 160.448C179.487 160.448 180.578 161.716 183.381 161.426C186.706 161.07 187.71 159.888 187.71 159.888Z" fill="#455A64"/>
<path d="M220.343 105.211C221.289 111.883 220.459 113.193 213.394 118.766C209.749 121.644 202.953 128.1 202.953 128.1C202.953 128.1 203.89 130.132 203.935 134.909C203.973 139.118 203.981 153.038 203.981 153.038C201.737 153.855 199.297 153.969 196.986 153.365C196.986 153.365 193.822 128.15 194.336 123.725C194.498 122.328 202.376 115.32 203.873 113.035L191.939 123.327C192.726 125.421 193.167 127.628 193.245 129.862C193.473 135.572 194.489 147.22 194.489 147.22C193.668 147.922 192.705 148.439 191.666 148.736C190.628 149.033 189.537 149.103 188.469 148.941C188.469 148.941 182.373 122.755 182.373 120.711C182.373 117.597 195.306 105.12 197.865 102.959C199.324 101.715 200.95 100.405 200.95 100.405L220.343 105.211Z" fill="#455A64"/>
<path d="M203.865 113.035C202.782 111.76 201.972 110.277 201.484 108.677C201.559 109.822 201.723 110.959 201.974 112.078C202.343 113.562 191.931 123.327 191.931 123.327L203.865 113.035Z" fill="#37474F"/>
<path d="M198.971 77.8682C202.471 74.1902 203.757 73.1784 205.884 73.195L203.023 84.4737C203.023 84.4737 196.654 89.8021 192.432 92.9618L189.944 87.5049C189.944 87.5049 195.463 81.5462 198.971 77.8682Z" fill="#FFA8A7"/>
<path d="M205.884 73.195C205.884 73.195 203.446 72.6311 200.493 75.8157C197.541 79.0002 191.433 85.4109 191.433 85.4109C191.292 86.7585 192.976 91.4856 194.804 92.0993L201.816 85.9458C201.816 85.9458 205.191 83.1966 205.884 81.2145C206.576 79.2324 205.884 73.195 205.884 73.195Z" fill="#E8D1C5"/>
<path d="M189.957 87.5049L183.699 74.1943L180.142 75.6581C180.142 75.6581 185.35 91.4151 186.1 93.1401C186.544 94.1519 187.954 95.3793 189.998 94.3841C190.45 94.1643 191.329 93.6419 192.432 92.9618" fill="#FFA8A7"/>
<path d="M181.456 79.6263C181.042 78.3202 179.644 76.9394 179.445 76.3837C179.259 75.9487 179.198 75.4708 179.267 75.0029L180.88 75.1646L181.456 79.6263Z" fill="#FFA8A7"/>
<path d="M184.79 76.5206C184.524 75.9193 184.479 73.8087 184.811 72.5937C185.142 71.3788 184.371 69.857 184.566 69.0028C184.761 68.1486 184.205 67.8874 183.708 68.1735C183.401 68.3651 183.147 68.6299 182.968 68.944C182.789 69.2581 182.692 69.6118 182.683 69.9731C182.658 70.8605 182.6 73.1121 182.961 74.2109C183.322 75.3098 184.79 76.5206 184.79 76.5206Z" fill="#FFA8A7"/>
<path d="M183.953 74.4473C183.857 74.7251 183.492 75.1024 182.315 74.8992L180.142 75.6581L179.259 75.6083C179.732 75.9428 180.31 76.0937 180.887 76.0326C181.463 75.9716 181.997 75.7028 182.389 75.2766C182.389 75.2766 183.986 75.4756 183.953 74.4473Z" fill="#F28F8F"/>
<path d="M181.104 67.1907C181.058 66.6973 180.648 66.1624 179.86 65.6772C177.698 64.5107 175.189 64.1605 172.79 64.6903C171.894 64.9391 171.351 65.3372 171.173 65.7975H171.144C170.368 68.9074 170.418 72.6435 171.26 74.8246C171.26 74.8246 171.26 74.8536 171.26 74.8702V74.9034C171.433 75.3015 171.71 75.6464 172.06 75.9027C172.833 76.4402 173.721 76.7882 174.653 76.9186C175.586 77.049 176.535 76.9581 177.426 76.6533C177.833 76.5043 178.193 76.2478 178.467 75.911V75.882L178.5 75.8405C179.905 73.9746 180.988 70.3919 181.091 67.1907H181.104Z" fill="#E8D1C5"/>
<g opacity="0.3">
<path opacity="0.3" d="M179.852 65.6772C181.685 66.801 181.511 68.1652 179.437 68.7499C177.038 69.2804 174.528 68.9285 172.367 67.7588C170.535 66.6392 170.709 65.2709 172.782 64.6903C175.181 64.1605 177.69 64.5107 179.852 65.6772V65.6772Z" fill="white"/>
</g>
<path d="M179.096 66.1168C180.593 66.8922 180.465 67.7754 178.814 68.1237C176.875 68.4163 174.893 68.1382 173.109 67.3234C171.612 66.548 171.74 65.6648 173.391 65.3165C175.33 65.0241 177.312 65.3022 179.096 66.1168V66.1168Z" fill="#E8D1C5"/>
<g opacity="0.1">
<path opacity="0.1" d="M179.096 66.1168C180.593 66.8922 180.465 67.7754 178.814 68.1237C176.875 68.4163 174.893 68.1382 173.109 67.3234C171.612 66.548 171.74 65.6648 173.391 65.3165C175.33 65.0241 177.312 65.3022 179.096 66.1168V66.1168Z" fill="black"/>
</g>
<path d="M178.927 67.3276C179.196 67.4594 179.443 67.6314 179.661 67.8376C179.399 67.9714 179.12 68.0677 178.831 68.1237C176.892 68.4163 174.91 68.1382 173.126 67.3234C172.857 67.19 172.61 67.0182 172.392 66.8134C172.653 66.6796 172.932 66.5832 173.221 66.5273C175.16 66.2347 177.143 66.5128 178.927 67.3276Z" fill="#37474F"/>
<path d="M179.993 75.7783C180.407 75.8414 180.83 75.8216 181.237 75.7203C181.809 75.5668 182.344 75.0195 182.875 74.0616C183.322 73.2323 184.085 71.4161 183.758 70.4085C183.343 69.1272 181.863 68.9447 180.855 68.8245L180.519 68.783L180.3 70.3338L180.669 70.3795C181.22 70.4458 182.149 70.5619 182.253 70.8895C182.398 71.5198 181.336 73.9621 180.793 74.2316C180.304 74.301 179.805 74.22 179.362 73.9994L178.653 75.3968C179.077 75.5938 179.529 75.7225 179.993 75.7783Z" fill="#E8D1C5"/>
<path d="M175.472 62.9446C173.652 61.7545 172.831 59.702 174.017 57.5541C175.203 55.4061 176.19 53.2499 174.73 51.5291C175.32 51.6179 175.872 51.8754 176.319 52.2704C176.767 52.6654 177.09 53.1812 177.251 53.7558C177.927 55.8291 176.886 57.7033 175.862 59.0717C174.838 60.4401 174.651 62.0033 175.472 62.9446Z" fill="#F0F0F0"/>
<path d="M178.831 64.4332C177.193 63.3634 176.455 61.5306 177.521 59.5693C178.587 57.6079 179.474 55.7212 178.16 54.1787C178.69 54.2593 179.185 54.4912 179.587 54.8464C179.988 55.2017 180.279 55.6652 180.424 56.1815C181.029 58.0475 180.096 59.731 179.18 60.9584C178.263 62.1858 178.089 63.5915 178.831 64.4332Z" fill="#F0F0F0"/>
<path d="M181.85 70.8563C182.816 70.8563 185.657 71.9842 185.719 73.0084C185.781 74.0326 183.849 73.9538 183.849 73.9538C183.939 74.1063 183.973 74.2855 183.945 74.4605C183.917 74.6354 183.829 74.7951 183.695 74.9117C183.218 75.3263 179.569 74.0824 179.569 74.0824C179.696 73.6643 179.889 73.2694 180.142 72.913C180.323 72.6825 180.588 72.5334 180.88 72.4984C180.88 72.4984 180.411 70.8563 181.85 70.8563Z" fill="#FFA8A7"/>
<path d="M217.748 75.007C219.075 77.1757 219.792 79.663 219.821 82.2055V91.0751L220.617 106.082C217.445 109.536 203.347 108.847 199.826 101.321C199.826 101.321 200.158 84.764 200.631 81.2725C201.277 76.5288 202.472 73.1038 207.045 73.0042L212.925 73.8087L217.748 75.007Z" fill="#F0F0F0"/>
<path d="M204.689 121.13H204.703" stroke="black" stroke-width="0.332403" stroke-miterlimit="10"/>
<path d="M203.151 116.456C202.695 117.953 202.977 119.865 203.781 120.723C204.022 120.977 204.352 121.126 204.702 121.138C204.988 121.113 205.264 121.019 205.507 120.865C205.75 120.71 205.951 120.5 206.095 120.251C206.353 119.869 206.55 119.449 206.68 119.007L204.656 119.069C204.571 119.068 204.488 119.048 204.411 119.012C204.335 118.975 204.267 118.922 204.212 118.857C204.038 118.605 203.924 118.316 203.88 118.012C203.835 117.709 203.861 117.399 203.955 117.107L205.519 117.277C205.549 116.65 205.359 116.032 204.98 115.532C204.84 115.373 204.654 115.262 204.449 115.212H204.411C203.91 115.134 203.412 115.594 203.151 116.456Z" fill="#EBEBEB"/>
<path d="M203.951 117.103C203.857 117.395 203.831 117.705 203.876 118.008C203.92 118.312 204.034 118.601 204.208 118.853C204.263 118.918 204.331 118.971 204.407 119.007C204.484 119.044 204.567 119.063 204.652 119.065V119.065C204.938 119.065 205.22 118.762 205.374 118.26C205.465 117.941 205.511 117.61 205.51 117.277V117.277L203.951 117.103Z" fill="#E0E0E0"/>
<path d="M204.445 115.208C204.651 115.257 204.836 115.369 204.976 115.528C205.355 116.028 205.546 116.646 205.515 117.273V117.273C205.516 117.606 205.47 117.936 205.378 118.256C205.225 118.758 204.943 119.048 204.657 119.06L206.68 118.998C207.029 117.867 207.006 116.653 206.614 115.536L204.445 115.208Z" fill="#F5F5F5"/>
<path d="M231.244 122.436C231.696 121.715 231.972 120.898 232.049 120.051C232.126 119.203 232.003 118.35 231.688 117.559C231.34 116.809 230.821 116.427 230.278 116.419L219.397 116.274L217.096 116.071L205.345 114.238C205.609 114.335 205.85 114.484 206.056 114.676C206.261 114.869 206.425 115.1 206.539 115.358C206.568 115.416 206.593 115.474 206.618 115.536C207.009 116.653 207.033 117.867 206.684 118.998C206.555 119.441 206.358 119.86 206.099 120.242C205.956 120.491 205.754 120.702 205.511 120.857C205.269 121.011 204.993 121.105 204.706 121.13L216.59 121.308L218.904 121.515L229.652 123.311C230.187 123.406 230.767 123.124 231.244 122.436Z" fill="#FAFAFA"/>
<path d="M208.148 115.552C208.148 115.552 209.392 118.177 207.211 121.167L209.118 121.196C209.684 120.457 210.063 119.592 210.222 118.675C210.382 117.758 210.318 116.816 210.035 115.93L208.148 115.552Z" fill="#E0E0E0"/>
<path d="M211.245 116.328L216.909 117.29C216.909 117.29 217.656 119.525 216.615 121.304L210.557 121.217C210.557 121.217 211.971 118.857 211.245 116.328Z" fill="#F0F0F0"/>
<path d="M216.91 117.29L214.671 116.908L213.261 119.318L214.542 120.607L214.078 121.266L216.615 121.304C217.656 119.533 216.91 117.29 216.91 117.29Z" fill="#E0E0E0"/>
<path d="M212.39 118.364C212.271 118.278 212.184 118.154 212.147 118.012C212.109 117.869 212.123 117.718 212.185 117.585C212.247 117.451 212.354 117.344 212.486 117.281C212.619 117.218 212.77 117.204 212.913 117.24C213.033 117.326 213.119 117.45 213.156 117.592C213.194 117.735 213.18 117.886 213.118 118.019C213.056 118.152 212.95 118.26 212.817 118.323C212.684 118.386 212.533 118.4 212.39 118.364V118.364Z" fill="#FAFAFA"/>
<path d="M224.489 117.331C224.489 117.331 225.319 119.525 223.714 122.307L224.307 122.407C225.236 120.882 225.54 119.058 225.157 117.315L224.489 117.331Z" fill="#E0E0E0"/>
<path d="M226.086 117.418C226.336 118.287 226.391 119.2 226.248 120.092C226.105 120.985 225.766 121.834 225.257 122.581L225.854 122.68C226.364 121.915 226.706 121.051 226.858 120.144C227.01 119.237 226.969 118.308 226.737 117.418H226.086Z" fill="#E0E0E0"/>
<path d="M227.679 117.51C227.95 118.408 228.012 119.356 227.86 120.281C227.709 121.207 227.347 122.086 226.804 122.85L227.401 122.954C227.96 122.179 228.334 121.285 228.492 120.343C228.65 119.4 228.589 118.433 228.313 117.518L227.679 117.51Z" fill="#E0E0E0"/>
<path d="M229.271 117.597C229.56 118.522 229.627 119.503 229.465 120.459C229.304 121.415 228.919 122.32 228.342 123.099L228.943 123.199C229.55 122.414 229.953 121.492 230.117 120.514C230.281 119.535 230.199 118.532 229.88 117.593L229.271 117.597Z" fill="#E0E0E0"/>
<path d="M221.375 92.9618L224.522 99.2978C224.522 99.2978 219.853 112.588 218.796 113.844C217.739 115.1 216.573 114.926 215.914 115.863C216.529 116.033 217.163 116.125 217.801 116.137C218.609 117.132 218.124 119.911 216.835 121.333C216.835 121.333 217.166 122.643 219.493 123.108C220.231 123.253 221.665 123.145 222.395 122.631C223.83 121.598 224.908 118.55 224.663 116.709C224.468 115.266 224.489 114.255 225.099 112.919C227.972 106.604 229.245 103.743 231.037 100.405C230.622 97.436 226.82 88.4503 226.82 88.4503L221.375 92.9618Z" fill="#FFA8A7"/>
<path d="M217.747 75.007C221.318 76.3008 223.138 79.8669 225.161 83.9015C227.185 87.9361 229.005 92.2693 229.005 92.2693C229.005 92.2693 226.932 95.1719 222.437 96.0676L218.129 88.0398C218.129 88.0398 213.754 81.0818 217.747 75.007Z" fill="#E8D1C5"/>
<path d="M211.343 61.3939C212.158 57.9391 210.018 54.4775 206.564 53.6621C203.109 52.8467 199.647 54.9863 198.832 58.4411C198.016 61.8958 200.156 65.3574 203.611 66.1728C207.066 66.9882 210.527 64.8486 211.343 61.3939Z" fill="#263238"/>
<path d="M215.611 63.7574C215.611 63.7574 214.625 68.3891 214.231 69.1479C213.966 69.6179 213.531 69.9682 213.016 70.1265L213.086 66.8673L215.611 63.7574Z" fill="#263238"/>
<path d="M214.372 57.1228C214.717 57.0824 215.066 57.1212 215.394 57.2362C215.721 57.3511 216.019 57.5392 216.263 57.7862C217.092 58.6156 216.619 61.2113 215.612 63.7573L213.754 63.9688L214.372 57.1228Z" fill="#263238"/>
<path d="M213.199 63.9688C213.568 64.1886 214.099 63.4754 214.559 62.9944C215.019 62.5134 216.516 61.8582 217.267 63.4339C218.017 65.0096 216.603 67.1658 215.425 67.5307C213.394 68.1693 213.087 66.8631 213.087 66.8631L212.933 74.1985C211.179 76.1557 205.187 75.6871 206.299 74.0036V71.7727C205.393 71.9166 204.474 71.9639 203.558 71.9137C202.065 71.6815 201.124 70.4997 200.655 68.8825C199.93 66.2826 199.652 64.1844 200.27 59.0717C200.946 53.4655 207.464 53.4075 210.984 55.6217C214.505 57.836 213.199 63.9688 213.199 63.9688Z" fill="#FFA8A7"/>
<path d="M213.199 64.5991C213.385 64.5991 214.094 63.4215 214.559 62.9985C215.201 62.4138 214.372 57.1228 214.372 57.1228C214.546 56.6633 214.581 56.1626 214.471 55.6836C214.361 55.2047 214.111 54.7691 213.754 54.4317C212.875 53.4614 211.403 53.3535 208.894 52.9596C207.576 52.7523 205.577 52.3832 204.267 52.1303C202.695 51.84 201.397 51.529 200.286 52.4952C200.002 52.7124 199.766 52.9866 199.594 53.3002C199.422 53.6139 199.317 53.9601 199.287 54.3165C199.256 54.673 199.301 55.0319 199.417 55.3702C199.533 55.7086 199.719 56.0188 199.963 56.281C200.263 56.6371 200.654 56.9051 201.095 57.0564C201.095 57.0564 201.779 57.666 204.159 57.9563C206.539 58.2465 210.25 57.8982 210.76 57.8319C211.449 57.7365 211.59 58.4041 211.971 60.2327C212.295 61.8623 212.568 64.5867 213.199 64.5991Z" fill="#263238"/>
<path d="M214.368 57.5333L216.611 56.3266C216.539 56.1753 216.437 56.0401 216.311 55.9293C216.186 55.8184 216.039 55.7341 215.88 55.6814C215.72 55.6287 215.552 55.6088 215.385 55.6227C215.218 55.6367 215.055 55.6843 214.907 55.7627C214.607 55.9317 214.383 56.2101 214.283 56.5399C214.182 56.8697 214.213 57.2255 214.368 57.5333V57.5333Z" fill="#263238"/>
<path d="M206.319 71.7769C206.319 71.7769 209.657 71.1051 210.827 70.4831C211.512 70.1242 212.074 69.5681 212.44 68.8867C212.263 69.5691 211.952 70.2093 211.523 70.7692C210.669 71.8474 206.319 72.6767 206.319 72.6767V71.7769Z" fill="#F28F8F"/>
<path d="M207.124 63.1395C207.122 63.229 207.138 63.318 207.17 63.4013C207.203 63.4847 207.251 63.5608 207.313 63.6252C207.375 63.6897 207.45 63.7411 207.532 63.7766C207.614 63.8121 207.702 63.8309 207.792 63.832C207.931 63.8378 208.068 63.8018 208.187 63.7287C208.305 63.6556 208.399 63.5486 208.456 63.4217C208.513 63.2948 208.531 63.1537 208.507 63.0166C208.483 62.8795 208.419 62.7527 208.322 62.6525C208.226 62.5523 208.101 62.4833 207.965 62.4545C207.829 62.4256 207.687 62.4382 207.559 62.4906C207.43 62.543 207.319 62.6328 207.242 62.7485C207.165 62.8641 207.124 63.0003 207.124 63.1395V63.1395Z" fill="#263238"/>
<path d="M208.197 60.3654L209.628 61.1574C209.73 60.9613 209.753 60.7331 209.691 60.5207C209.629 60.3082 209.488 60.1278 209.296 60.0171C209.202 59.9652 209.098 59.933 208.99 59.9225C208.883 59.912 208.775 59.9233 208.672 59.9559C208.569 59.9885 208.474 60.0416 208.393 60.112C208.311 60.1824 208.245 60.2686 208.197 60.3654V60.3654Z" fill="#263238"/>
<path d="M206.622 67.7588L205.096 68.331C205.129 68.4336 205.182 68.5283 205.253 68.6097C205.323 68.6911 205.41 68.7574 205.506 68.8046C205.603 68.8518 205.708 68.879 205.816 68.8846C205.924 68.8902 206.031 68.8739 206.132 68.8369C206.338 68.7561 206.504 68.5983 206.596 68.3971C206.687 68.1958 206.696 67.9669 206.622 67.7588V67.7588Z" fill="#F28F8F"/>
<path d="M200.987 60.9543L202.293 59.9508C202.231 59.8624 202.153 59.7875 202.062 59.7305C201.97 59.6736 201.868 59.6358 201.762 59.6195C201.656 59.6032 201.547 59.6087 201.443 59.6357C201.339 59.6628 201.242 59.7107 201.157 59.7766C200.982 59.9135 200.868 60.1122 200.836 60.3314C200.804 60.5507 200.858 60.7737 200.987 60.9543V60.9543Z" fill="#263238"/>
<path d="M201.559 62.9446C201.557 63.0343 201.572 63.1235 201.604 63.2071C201.637 63.2907 201.686 63.3671 201.748 63.4318C201.81 63.4966 201.884 63.5484 201.966 63.5843C202.048 63.6203 202.137 63.6396 202.226 63.6412C202.408 63.6369 202.581 63.5607 202.707 63.4294C202.833 63.2981 202.901 63.1223 202.898 62.9405C202.905 62.8481 202.893 62.7552 202.863 62.6677C202.833 62.5801 202.785 62.4998 202.722 62.4317C202.659 62.3637 202.582 62.3094 202.498 62.2723C202.413 62.2351 202.321 62.216 202.228 62.216C202.136 62.216 202.044 62.2351 201.959 62.2723C201.874 62.3094 201.798 62.3637 201.735 62.4317C201.672 62.4998 201.624 62.5801 201.594 62.6677C201.563 62.7552 201.551 62.8481 201.559 62.9405V62.9446Z" fill="#263238"/>
<path d="M204.864 62.4097L204.79 66.4651L202.389 65.9384L204.864 62.4097Z" fill="#F28F8F"/>
<path d="M120.94 68.6545C125.406 68.6545 129.026 65.0343 129.026 60.5686C129.026 56.1029 125.406 52.4828 120.94 52.4828C116.475 52.4828 112.854 56.1029 112.854 60.5686C112.854 65.0343 116.475 68.6545 120.94 68.6545Z" fill="#E8D1C5"/>
<path d="M120.941 50.1482C120.841 50.1482 120.742 50.1285 120.649 50.0901C120.557 50.0517 120.473 49.9954 120.403 49.9245C120.332 49.8536 120.276 49.7695 120.238 49.6769C120.2 49.5844 120.181 49.4853 120.182 49.3853V45.8192C120.174 45.7145 120.188 45.6094 120.223 45.5104C120.257 45.4114 120.312 45.3206 120.384 45.2437C120.455 45.1668 120.542 45.1055 120.638 45.0636C120.734 45.0216 120.838 45 120.943 45C121.048 45 121.151 45.0216 121.248 45.0636C121.344 45.1055 121.43 45.1668 121.502 45.2437C121.573 45.3206 121.628 45.4114 121.663 45.5104C121.697 45.6094 121.711 45.7145 121.704 45.8192V49.3853C121.704 49.5876 121.623 49.7817 121.48 49.9248C121.337 50.0678 121.143 50.1482 120.941 50.1482Z" fill="#E8D1C5"/>
<path d="M114.368 52.2837C114.248 52.2841 114.129 52.2557 114.021 52.2009C113.914 52.1461 113.821 52.0664 113.75 51.9686L111.652 49.066C111.593 48.9843 111.551 48.8918 111.528 48.7938C111.505 48.6959 111.502 48.5943 111.518 48.495C111.534 48.3956 111.57 48.3004 111.622 48.2149C111.675 48.1293 111.745 48.0549 111.826 47.9961C111.908 47.9373 112.001 47.8952 112.099 47.8721C112.197 47.849 112.298 47.8455 112.397 47.8616C112.497 47.8778 112.592 47.9134 112.678 47.9664C112.763 48.0193 112.837 48.0886 112.896 48.1703L114.994 51.0729C115.112 51.2365 115.16 51.4398 115.128 51.6387C115.096 51.8375 114.987 52.0157 114.824 52.1344C114.693 52.2328 114.533 52.2852 114.368 52.2837V52.2837Z" fill="#E8D1C5"/>
<path d="M110.309 57.8733C110.228 57.8731 110.149 57.8605 110.072 57.836L106.676 56.733C106.581 56.7025 106.493 56.6536 106.417 56.5891C106.341 56.5245 106.278 56.4456 106.233 56.3569C106.187 56.2681 106.159 56.1713 106.151 56.0718C106.143 55.9724 106.154 55.8723 106.185 55.7772C106.215 55.6822 106.264 55.5941 106.329 55.518C106.393 55.4419 106.472 55.3792 106.561 55.3336C106.65 55.288 106.747 55.2603 106.846 55.2521C106.945 55.2439 107.046 55.2554 107.141 55.2859L110.537 56.3889C110.711 56.4422 110.861 56.5569 110.958 56.7118C111.055 56.8666 111.093 57.0513 111.065 57.2318C111.036 57.4124 110.944 57.5767 110.804 57.6945C110.665 57.8124 110.487 57.8759 110.304 57.8733H110.309Z" fill="#E8D1C5"/>
<path d="M106.912 65.8887C106.729 65.8923 106.551 65.8295 106.411 65.712C106.27 65.5945 106.177 65.4302 106.148 65.2493C106.119 65.0685 106.157 64.8833 106.254 64.728C106.351 64.5726 106.501 64.4576 106.676 64.4042L110.072 63.3012C110.264 63.2391 110.473 63.2557 110.652 63.3475C110.832 63.4392 110.968 63.5986 111.03 63.7905C111.092 63.9824 111.075 64.1911 110.984 64.3708C110.892 64.5504 110.733 64.6862 110.541 64.7484L107.14 65.8514C107.067 65.8754 106.99 65.888 106.912 65.8887Z" fill="#E8D1C5"/>
<path d="M112.27 73.2655C112.11 73.2644 111.953 73.2137 111.822 73.1203C111.659 73.0009 111.55 72.822 111.518 72.6224C111.487 72.4229 111.535 72.2189 111.652 72.0547L113.751 69.152C113.869 68.9871 114.049 68.8761 114.249 68.8434C114.45 68.8107 114.655 68.8591 114.82 68.9779C114.985 69.0967 115.096 69.2761 115.129 69.4767C115.162 69.6774 115.113 69.8827 114.995 70.0477L112.896 72.9503C112.825 73.0488 112.73 73.1288 112.621 73.1836C112.513 73.2384 112.392 73.2665 112.27 73.2655V73.2655Z" fill="#E8D1C5"/>
<path d="M120.941 76.081C120.841 76.081 120.742 76.0614 120.65 76.0233C120.558 75.9851 120.474 75.9292 120.404 75.8588C120.334 75.7883 120.278 75.7047 120.24 75.6126C120.201 75.5205 120.182 75.4218 120.182 75.3222V71.752C120.174 71.6473 120.188 71.5422 120.223 71.4432C120.257 71.3442 120.312 71.2534 120.384 71.1765C120.455 71.0996 120.542 71.0383 120.638 70.9964C120.734 70.9544 120.838 70.9328 120.943 70.9328C121.048 70.9328 121.151 70.9544 121.248 70.9964C121.344 71.0383 121.43 71.0996 121.502 71.1765C121.573 71.2534 121.628 71.3442 121.663 71.4432C121.697 71.5422 121.711 71.6473 121.704 71.752V75.3222C121.702 75.5238 121.622 75.7168 121.479 75.859C121.336 76.0012 121.142 76.081 120.941 76.081V76.081Z" fill="#E8D1C5"/>
<path d="M129.611 73.2655C129.491 73.2645 129.373 73.2355 129.267 73.1808C129.16 73.1261 129.068 73.0472 128.998 72.9504L126.899 70.0477C126.841 69.9661 126.798 69.8736 126.775 69.7756C126.752 69.6776 126.749 69.5761 126.765 69.4768C126.781 69.3774 126.817 69.2822 126.87 69.1966C126.923 69.111 126.992 69.0367 127.073 68.9779C127.155 68.9191 127.248 68.877 127.346 68.8539C127.444 68.8308 127.545 68.8273 127.644 68.8434C127.744 68.8596 127.839 68.8952 127.925 68.9481C128.01 69.0011 128.084 69.0704 128.143 69.1521L130.241 72.0547C130.359 72.2189 130.407 72.4229 130.376 72.6225C130.344 72.822 130.234 73.0009 130.071 73.1204C129.937 73.2162 129.776 73.267 129.611 73.2655V73.2655Z" fill="#E8D1C5"/>
<path d="M134.968 65.8887C134.889 65.8881 134.811 65.8755 134.736 65.8514L131.34 64.7484C131.238 64.7227 131.143 64.6765 131.06 64.6127C130.978 64.5488 130.909 64.4685 130.858 64.3769C130.808 64.2854 130.777 64.1844 130.767 64.0803C130.757 63.9762 130.769 63.8712 130.801 63.7718C130.834 63.6724 130.886 63.5807 130.956 63.5025C131.025 63.4242 131.11 63.3611 131.205 63.317C131.299 63.2728 131.402 63.2487 131.507 63.246C131.611 63.2432 131.715 63.2621 131.812 63.3012L135.204 64.4042C135.379 64.4576 135.529 64.5726 135.626 64.728C135.723 64.8833 135.761 65.0685 135.732 65.2493C135.703 65.4302 135.61 65.5945 135.47 65.712C135.329 65.8295 135.151 65.8923 134.968 65.8887V65.8887Z" fill="#E8D1C5"/>
<path d="M131.576 57.8733C131.393 57.8769 131.215 57.8142 131.075 57.6967C130.934 57.5792 130.841 57.4148 130.812 57.234C130.783 57.0531 130.821 56.8679 130.918 56.7126C131.015 56.5573 131.165 56.4423 131.34 56.3888L134.736 55.2859C134.928 55.2237 135.137 55.2404 135.316 55.3321C135.496 55.4239 135.632 55.5832 135.694 55.7752C135.756 55.9671 135.74 56.1758 135.648 56.3554C135.556 56.5351 135.397 56.6709 135.205 56.733L131.813 57.836C131.736 57.8605 131.657 57.8731 131.576 57.8733V57.8733Z" fill="#E8D1C5"/>
<path d="M127.513 52.2837C127.373 52.2839 127.235 52.2453 127.116 52.172C126.996 52.0988 126.899 51.9939 126.835 51.8689C126.772 51.7439 126.744 51.6037 126.755 51.464C126.767 51.3242 126.816 51.1903 126.899 51.0771L128.997 48.1744C129.116 48.0095 129.296 47.8985 129.496 47.8658C129.697 47.8331 129.902 47.8815 130.067 48.0003C130.232 48.1191 130.343 48.2985 130.376 48.4991C130.408 48.6998 130.36 48.9051 130.241 49.0701L128.143 51.9727C128.071 52.0715 127.976 52.1514 127.866 52.2056C127.756 52.2597 127.635 52.2865 127.513 52.2837V52.2837Z" fill="#E8D1C5"/>
</g>
<defs>
<filter id="filter0_d" x="-3" y="4" width="1157" height="219" filterUnits="userSpaceOnUse" color-interpolation-filters="sRGB">
<feFlood flood-opacity="0" result="BackgroundImageFix"/>
<feColorMatrix in="SourceAlpha" type="matrix" values="0 0 0 0 0 0 0 0 0 0 0 0 0 0 0 0 0 0 127 0"/>
<feOffset/>
<feGaussianBlur stdDeviation="13"/>
<feColorMatrix type="matrix" values="0 0 0 0 0.909804 0 0 0 0 0.819608 0 0 0 0 0.772549 0 0 0 0.2 0"/>
<feBlend mode="normal" in2="BackgroundImageFix" result="effect1_dropShadow"/>
<feBlend mode="normal" in="SourceGraphic" in2="effect1_dropShadow" result="shape"/>
</filter>
<clipPath id="clip0">
<rect width="1152" height="227" fill="white"/>
</clipPath>
</defs>
</svg>
