<svg width="1157" height="219" viewBox="0 0 1157 219" fill="none" xmlns="http://www.w3.org/2000/svg">
<g filter="url(#filter0_d)">
<rect x="26" y="26" width="1105" height="167" rx="5" fill="white"/>
</g>
<path d="M409.65 106.36C409.17 105.48 408.51 104.81 407.67 104.35C406.83 103.89 405.85 103.66 404.73 103.66C403.49 103.66 402.39 103.94 401.43 104.5C400.47 105.06 399.72 105.86 399.18 106.9C398.64 107.94 398.37 109.14 398.37 110.5C398.37 111.9 398.64 113.12 399.18 114.16C399.74 115.2 400.51 116 401.49 116.56C402.47 117.12 403.61 117.4 404.91 117.4C406.51 117.4 407.82 116.98 408.84 116.14C409.86 115.28 410.53 114.09 410.85 112.57H403.65V109.36H414.99V113.02C414.71 114.48 414.11 115.83 413.19 117.07C412.27 118.31 411.08 119.31 409.62 120.07C408.18 120.81 406.56 121.18 404.76 121.18C402.74 121.18 400.91 120.73 399.27 119.83C397.65 118.91 396.37 117.64 395.43 116.02C394.51 114.4 394.05 112.56 394.05 110.5C394.05 108.44 394.51 106.6 395.43 104.98C396.37 103.34 397.65 102.07 399.27 101.17C400.91 100.25 402.73 99.79 404.73 99.79C407.09 99.79 409.14 100.37 410.88 101.53C412.62 102.67 413.82 104.28 414.48 106.36H409.65ZM427.127 121.27C425.527 121.27 424.087 120.92 422.807 120.22C421.527 119.5 420.517 118.49 419.777 117.19C419.057 115.89 418.697 114.39 418.697 112.69C418.697 110.99 419.067 109.49 419.807 108.19C420.567 106.89 421.597 105.89 422.897 105.19C424.197 104.47 425.647 104.11 427.247 104.11C428.847 104.11 430.297 104.47 431.597 105.19C432.897 105.89 433.917 106.89 434.657 108.19C435.417 109.49 435.797 110.99 435.797 112.69C435.797 114.39 435.407 115.89 434.627 117.19C433.867 118.49 432.827 119.5 431.507 120.22C430.207 120.92 428.747 121.27 427.127 121.27ZM427.127 117.61C427.887 117.61 428.597 117.43 429.257 117.07C429.937 116.69 430.477 116.13 430.877 115.39C431.277 114.65 431.477 113.75 431.477 112.69C431.477 111.11 431.057 109.9 430.217 109.06C429.397 108.2 428.387 107.77 427.187 107.77C425.987 107.77 424.977 108.2 424.157 109.06C423.357 109.9 422.957 111.11 422.957 112.69C422.957 114.27 423.347 115.49 424.127 116.35C424.927 117.19 425.927 117.61 427.127 117.61ZM447.908 121.27C446.308 121.27 444.868 120.92 443.588 120.22C442.308 119.5 441.298 118.49 440.558 117.19C439.838 115.89 439.478 114.39 439.478 112.69C439.478 110.99 439.848 109.49 440.588 108.19C441.348 106.89 442.378 105.89 443.678 105.19C444.978 104.47 446.428 104.11 448.028 104.11C449.628 104.11 451.078 104.47 452.378 105.19C453.678 105.89 454.698 106.89 455.438 108.19C456.198 109.49 456.578 110.99 456.578 112.69C456.578 114.39 456.188 115.89 455.408 117.19C454.648 118.49 453.608 119.5 452.288 120.22C450.988 120.92 449.528 121.27 447.908 121.27ZM447.908 117.61C448.668 117.61 449.378 117.43 450.038 117.07C450.718 116.69 451.258 116.13 451.658 115.39C452.058 114.65 452.258 113.75 452.258 112.69C452.258 111.11 451.838 109.9 450.998 109.06C450.178 108.2 449.168 107.77 447.968 107.77C446.768 107.77 445.758 108.2 444.938 109.06C444.138 109.9 443.738 111.11 443.738 112.69C443.738 114.27 444.128 115.49 444.908 116.35C445.708 117.19 446.708 117.61 447.908 117.61ZM460.229 112.63C460.229 110.95 460.559 109.46 461.219 108.16C461.899 106.86 462.819 105.86 463.979 105.16C465.139 104.46 466.429 104.11 467.849 104.11C468.929 104.11 469.959 104.35 470.939 104.83C471.919 105.29 472.699 105.91 473.279 106.69V98.8H477.539V121H473.279V118.54C472.759 119.36 472.029 120.02 471.089 120.52C470.149 121.02 469.059 121.27 467.819 121.27C466.419 121.27 465.139 120.91 463.979 120.19C462.819 119.47 461.899 118.46 461.219 117.16C460.559 115.84 460.229 114.33 460.229 112.63ZM473.309 112.69C473.309 111.67 473.109 110.8 472.709 110.08C472.309 109.34 471.769 108.78 471.089 108.4C470.409 108 469.679 107.8 468.899 107.8C468.119 107.8 467.399 107.99 466.739 108.37C466.079 108.75 465.539 109.31 465.119 110.05C464.719 110.77 464.519 111.63 464.519 112.63C464.519 113.63 464.719 114.51 465.119 115.27C465.539 116.01 466.079 116.58 466.739 116.98C467.419 117.38 468.139 117.58 468.899 117.58C469.679 117.58 470.409 117.39 471.089 117.01C471.769 116.61 472.309 116.05 472.709 115.33C473.109 114.59 473.309 113.71 473.309 112.69ZM514.92 100.06V121H510.72V107.38L505.11 121H501.93L496.29 107.38V121H492.09V100.06H496.86L503.52 115.63L510.18 100.06H514.92ZM528.102 121.27C526.502 121.27 525.062 120.92 523.782 120.22C522.502 119.5 521.492 118.49 520.752 117.19C520.032 115.89 519.672 114.39 519.672 112.69C519.672 110.99 520.042 109.49 520.782 108.19C521.542 106.89 522.572 105.89 523.872 105.19C525.172 104.47 526.622 104.11 528.222 104.11C529.822 104.11 531.272 104.47 532.572 105.19C533.872 105.89 534.892 106.89 535.632 108.19C536.392 109.49 536.772 110.99 536.772 112.69C536.772 114.39 536.382 115.89 535.602 117.19C534.842 118.49 533.802 119.5 532.482 120.22C531.182 120.92 529.722 121.27 528.102 121.27ZM528.102 117.61C528.862 117.61 529.572 117.43 530.232 117.07C530.912 116.69 531.452 116.13 531.852 115.39C532.252 114.65 532.452 113.75 532.452 112.69C532.452 111.11 532.032 109.9 531.192 109.06C530.372 108.2 529.362 107.77 528.162 107.77C526.962 107.77 525.952 108.2 525.132 109.06C524.332 109.9 523.932 111.11 523.932 112.69C523.932 114.27 524.322 115.49 525.102 116.35C525.902 117.19 526.902 117.61 528.102 117.61ZM545.703 106.96C546.243 106.08 546.943 105.39 547.803 104.89C548.683 104.39 549.683 104.14 550.803 104.14V108.55H549.693C548.373 108.55 547.373 108.86 546.693 109.48C546.033 110.1 545.703 111.18 545.703 112.72V121H541.503V104.38H545.703V106.96ZM564.492 104.14C566.472 104.14 568.072 104.77 569.292 106.03C570.512 107.27 571.122 109.01 571.122 111.25V121H566.922V111.82C566.922 110.5 566.592 109.49 565.932 108.79C565.272 108.07 564.372 107.71 563.232 107.71C562.072 107.71 561.152 108.07 560.472 108.79C559.812 109.49 559.482 110.5 559.482 111.82V121H555.282V104.38H559.482V106.45C560.042 105.73 560.752 105.17 561.612 104.77C562.492 104.35 563.452 104.14 564.492 104.14ZM578.896 102.4C578.156 102.4 577.536 102.17 577.036 101.71C576.556 101.23 576.316 100.64 576.316 99.94C576.316 99.24 576.556 98.66 577.036 98.2C577.536 97.72 578.156 97.48 578.896 97.48C579.636 97.48 580.246 97.72 580.726 98.2C581.226 98.66 581.476 99.24 581.476 99.94C581.476 100.64 581.226 101.23 580.726 101.71C580.246 102.17 579.636 102.4 578.896 102.4ZM580.966 104.38V121H576.766V104.38H580.966ZM595.975 104.14C597.955 104.14 599.555 104.77 600.775 106.03C601.995 107.27 602.605 109.01 602.605 111.25V121H598.405V111.82C598.405 110.5 598.075 109.49 597.415 108.79C596.755 108.07 595.855 107.71 594.715 107.71C593.555 107.71 592.635 108.07 591.955 108.79C591.295 109.49 590.965 110.5 590.965 111.82V121H586.765V104.38H590.965V106.45C591.525 105.73 592.235 105.17 593.095 104.77C593.975 104.35 594.935 104.14 595.975 104.14ZM614.759 104.11C615.999 104.11 617.089 104.36 618.029 104.86C618.969 105.34 619.709 105.97 620.249 106.75V104.38H624.479V121.12C624.479 122.66 624.169 124.03 623.549 125.23C622.929 126.45 621.999 127.41 620.759 128.11C619.519 128.83 618.019 129.19 616.259 129.19C613.899 129.19 611.959 128.64 610.439 127.54C608.939 126.44 608.089 124.94 607.889 123.04H612.059C612.279 123.8 612.749 124.4 613.469 124.84C614.209 125.3 615.099 125.53 616.139 125.53C617.359 125.53 618.349 125.16 619.109 124.42C619.869 123.7 620.249 122.6 620.249 121.12V118.54C619.709 119.32 618.959 119.97 617.999 120.49C617.059 121.01 615.979 121.27 614.759 121.27C613.359 121.27 612.079 120.91 610.919 120.19C609.759 119.47 608.839 118.46 608.159 117.16C607.499 115.84 607.169 114.33 607.169 112.63C607.169 110.95 607.499 109.46 608.159 108.16C608.839 106.86 609.749 105.86 610.889 105.16C612.049 104.46 613.339 104.11 614.759 104.11ZM620.249 112.69C620.249 111.67 620.049 110.8 619.649 110.08C619.249 109.34 618.709 108.78 618.029 108.4C617.349 108 616.619 107.8 615.839 107.8C615.059 107.8 614.339 107.99 613.679 108.37C613.019 108.75 612.479 109.31 612.059 110.05C611.659 110.77 611.459 111.63 611.459 112.63C611.459 113.63 611.659 114.51 612.059 115.27C612.479 116.01 613.019 116.58 613.679 116.98C614.359 117.38 615.079 117.58 615.839 117.58C616.619 117.58 617.349 117.39 618.029 117.01C618.709 116.61 619.249 116.05 619.649 115.33C620.049 114.59 620.249 113.71 620.249 112.69ZM657.84 100.06L650.16 121H645.06L637.38 100.06H641.88L647.64 116.71L653.37 100.06H657.84ZM664.138 102.4C663.398 102.4 662.778 102.17 662.278 101.71C661.798 101.23 661.558 100.64 661.558 99.94C661.558 99.24 661.798 98.66 662.278 98.2C662.778 97.72 663.398 97.48 664.138 97.48C664.878 97.48 665.488 97.72 665.968 98.2C666.468 98.66 666.718 99.24 666.718 99.94C666.718 100.64 666.468 101.23 665.968 101.71C665.488 102.17 664.878 102.4 664.138 102.4ZM666.208 104.38V121H662.008V104.38H666.208ZM678.368 121.27C677.008 121.27 675.788 121.03 674.708 120.55C673.628 120.05 672.768 119.38 672.128 118.54C671.508 117.7 671.168 116.77 671.108 115.75H675.338C675.418 116.39 675.728 116.92 676.268 117.34C676.828 117.76 677.518 117.97 678.338 117.97C679.138 117.97 679.758 117.81 680.198 117.49C680.658 117.17 680.888 116.76 680.888 116.26C680.888 115.72 680.608 115.32 680.048 115.06C679.508 114.78 678.638 114.48 677.438 114.16C676.198 113.86 675.178 113.55 674.378 113.23C673.598 112.91 672.918 112.42 672.338 111.76C671.778 111.1 671.498 110.21 671.498 109.09C671.498 108.17 671.758 107.33 672.278 106.57C672.818 105.81 673.578 105.21 674.558 104.77C675.558 104.33 676.728 104.11 678.068 104.11C680.048 104.11 681.628 104.61 682.808 105.61C683.988 106.59 684.638 107.92 684.758 109.6H680.738C680.678 108.94 680.398 108.42 679.898 108.04C679.418 107.64 678.768 107.44 677.948 107.44C677.188 107.44 676.598 107.58 676.178 107.86C675.778 108.14 675.578 108.53 675.578 109.03C675.578 109.59 675.858 110.02 676.418 110.32C676.978 110.6 677.848 110.89 679.028 111.19C680.228 111.49 681.218 111.8 681.998 112.12C682.778 112.44 683.448 112.94 684.008 113.62C684.588 114.28 684.888 115.16 684.908 116.26C684.908 117.22 684.638 118.08 684.098 118.84C683.578 119.6 682.818 120.2 681.818 120.64C680.838 121.06 679.688 121.27 678.368 121.27ZM699.365 104.14C700.625 104.14 701.745 104.42 702.725 104.98C703.705 105.52 704.465 106.33 705.005 107.41C705.565 108.47 705.845 109.75 705.845 111.25V121H701.645V111.82C701.645 110.5 701.315 109.49 700.655 108.79C699.995 108.07 699.095 107.71 697.955 107.71C696.795 107.71 695.875 108.07 695.195 108.79C694.535 109.49 694.205 110.5 694.205 111.82V121H690.005V98.8H694.205V106.45C694.745 105.73 695.465 105.17 696.365 104.77C697.265 104.35 698.265 104.14 699.365 104.14ZM715.689 106.96C716.229 106.08 716.929 105.39 717.789 104.89C718.669 104.39 719.669 104.14 720.789 104.14V108.55H719.679C718.359 108.55 717.359 108.86 716.679 109.48C716.019 110.1 715.689 111.18 715.689 112.72V121H711.489V104.38H715.689V106.96ZM740.958 104.38V121H736.728V118.9C736.188 119.62 735.478 120.19 734.598 120.61C733.738 121.01 732.798 121.21 731.778 121.21C730.478 121.21 729.328 120.94 728.328 120.4C727.328 119.84 726.538 119.03 725.958 117.97C725.398 116.89 725.118 115.61 725.118 114.13V104.38H729.318V113.53C729.318 114.85 729.648 115.87 730.308 116.59C730.968 117.29 731.868 117.64 733.008 117.64C734.168 117.64 735.078 117.29 735.738 116.59C736.398 115.87 736.728 114.85 736.728 113.53V104.38H740.958ZM751.642 107.83V115.87C751.642 116.43 751.772 116.84 752.032 117.1C752.312 117.34 752.772 117.46 753.412 117.46H755.362V121H752.722C749.182 121 747.412 119.28 747.412 115.84V107.83H745.432V104.38H747.412V100.27H751.642V104.38H755.362V107.83H751.642ZM762.163 102.4C761.423 102.4 760.803 102.17 760.303 101.71C759.823 101.23 759.583 100.64 759.583 99.94C759.583 99.24 759.823 98.66 760.303 98.2C760.803 97.72 761.423 97.48 762.163 97.48C762.903 97.48 763.513 97.72 763.993 98.2C764.493 98.66 764.743 99.24 764.743 99.94C764.743 100.64 764.493 101.23 763.993 101.71C763.513 102.17 762.903 102.4 762.163 102.4ZM764.233 104.38V121H760.033V104.38H764.233ZM784.261 99.7L783.781 114.19H780.241L779.731 99.7H784.261ZM782.101 121.21C781.341 121.21 780.711 120.98 780.211 120.52C779.731 120.04 779.491 119.45 779.491 118.75C779.491 118.05 779.731 117.47 780.211 117.01C780.711 116.53 781.341 116.29 782.101 116.29C782.841 116.29 783.451 116.53 783.931 117.01C784.411 117.47 784.651 118.05 784.651 118.75C784.651 119.45 784.411 120.04 783.931 120.52C783.451 120.98 782.841 121.21 782.101 121.21Z" fill="#505050"/>
<path d="M112.923 180.285C144.819 195.482 196.535 195.482 228.431 180.285C260.326 165.088 260.326 140.445 228.431 125.247C196.535 110.05 144.819 110.05 112.923 125.247C81.0277 140.445 81.0235 165.088 112.923 180.285Z" fill="#F5F5F5"/>
<path d="M228.137 153.531L209.601 142.821C209.295 142.666 208.959 142.578 208.616 142.562C208.273 142.546 207.93 142.603 207.611 142.729L186.878 152.308C186.318 152.565 186.298 153.03 186.832 153.336L209.937 166.676C210.231 166.827 210.559 166.897 210.889 166.88C211.219 166.864 211.539 166.76 211.816 166.581L228.199 154.746C228.311 154.686 228.405 154.595 228.468 154.484C228.531 154.373 228.56 154.247 228.554 154.119C228.547 153.992 228.505 153.869 228.431 153.764C228.357 153.66 228.255 153.579 228.137 153.531V153.531Z" fill="#E0E0E0"/>
<path d="M104.232 160.792L122.763 150.085C123.069 149.93 123.404 149.841 123.747 149.825C124.089 149.81 124.431 149.867 124.75 149.994L145.483 159.569C146.042 159.83 146.063 160.29 145.528 160.601L122.427 173.937C122.133 174.087 121.804 174.158 121.473 174.141C121.143 174.124 120.823 174.021 120.545 173.841L104.17 162.011C104.056 161.952 103.962 161.861 103.898 161.749C103.834 161.637 103.804 161.51 103.81 161.382C103.817 161.253 103.86 161.13 103.935 161.025C104.01 160.921 104.113 160.84 104.232 160.792V160.792Z" fill="#E0E0E0"/>
<path d="M225.437 138.745C225.437 138.745 225.715 132.297 228.543 127.109C231.371 121.922 235.53 118.517 239.585 117.904C243.641 117.29 247.198 120.806 243.019 123.709C238.839 126.612 231.267 129.771 228.377 139.661L225.437 138.745Z" fill="#E8D1C5"/>
<path opacity="0.2" d="M225.437 138.745C225.437 138.745 225.715 132.297 228.543 127.109C231.371 121.922 235.53 118.517 239.585 117.904C243.641 117.29 247.198 120.806 243.019 123.709C238.839 126.612 231.267 129.771 228.377 139.661L225.437 138.745Z" fill="black"/>
<path d="M226.515 136.999H226.47C226.415 136.98 226.37 136.94 226.344 136.888C226.318 136.836 226.314 136.776 226.333 136.721C229.886 125.82 237.769 120.815 241.443 119.691C241.498 119.675 241.557 119.682 241.607 119.709C241.657 119.736 241.695 119.782 241.712 119.836C241.721 119.864 241.725 119.893 241.722 119.921C241.72 119.95 241.711 119.978 241.698 120.004C241.684 120.029 241.666 120.052 241.643 120.07C241.621 120.088 241.595 120.102 241.567 120.11C237.972 121.209 230.247 126.126 226.747 136.858C226.73 136.904 226.698 136.943 226.656 136.969C226.614 136.994 226.564 137.005 226.515 136.999V136.999Z" fill="white"/>
<path d="M248.417 135.581C248.09 136.493 247.153 137.02 246.282 137.447C245.411 137.874 244.457 138.33 244.034 139.201C243.172 140.959 244.947 143.223 244.034 144.944C243.812 145.29 243.522 145.588 243.181 145.819C242.84 146.05 242.456 146.209 242.052 146.287C241.385 146.43 240.711 146.538 240.033 146.611C239.71 146.629 239.386 146.629 239.063 146.611C238.121 146.54 237.105 146.565 236.284 147.104C234.995 147.954 234.7 149.679 233.979 151.043C233.53 151.852 232.91 152.553 232.163 153.098C231.417 153.644 230.561 154.021 229.654 154.203C229.057 154.323 227.941 154.514 227.303 154.203C227.255 154.184 227.209 154.16 227.166 154.133V154.133C227.075 154.041 226.959 153.929 226.909 153.867C226.897 153.855 226.887 153.841 226.88 153.826C226.581 152.967 226.905 152.026 226.88 151.122V150.956C226.768 149.907 226.664 148.883 226.565 147.813C226.38 145.878 226.225 143.943 226.1 142.008C226.022 140.764 225.773 139.387 226.225 138.168C226.718 136.825 228.182 136.696 228.642 135.378C228.829 134.855 228.908 134.299 229.086 133.773C229.365 132.996 229.852 132.31 230.494 131.791C231.136 131.272 231.908 130.939 232.727 130.829C235.273 130.518 237.703 132.425 240.249 132.073C240.899 131.935 241.543 131.765 242.177 131.563C244.221 131.028 246.651 131.451 247.94 133.118C248.214 133.459 248.4 133.861 248.483 134.29C248.566 134.719 248.543 135.162 248.417 135.581Z" fill="#E8D1C5"/>
<g opacity="0.07">
<path opacity="0.07" d="M248.417 135.581C248.09 136.493 247.153 137.02 246.282 137.447C245.411 137.874 244.457 138.33 244.034 139.201C243.172 140.959 244.947 143.223 244.034 144.944C243.812 145.29 243.522 145.588 243.181 145.819C242.84 146.05 242.456 146.209 242.052 146.287C241.392 146.462 240.715 146.57 240.033 146.611C239.71 146.629 239.386 146.629 239.063 146.611C238.121 146.54 237.105 146.565 236.284 147.104C234.995 147.954 234.7 149.679 233.979 151.043C233.53 151.852 232.91 152.553 232.163 153.098C231.417 153.644 230.561 154.021 229.654 154.203C229.057 154.323 227.941 154.514 227.303 154.203C227.255 154.184 227.209 154.16 227.166 154.133V154.133C227.128 154.109 227.092 154.082 227.058 154.054C227 153.999 226.949 153.936 226.909 153.867C226.897 153.855 226.887 153.841 226.88 153.826C226.486 153.129 226.88 151.91 226.88 151.122V150.956C226.768 149.907 226.664 148.883 226.565 147.813C226.38 145.878 226.225 143.943 226.1 142.008C226.022 140.764 225.773 139.387 226.225 138.168C226.718 136.825 228.182 136.696 228.642 135.378C228.829 134.855 228.908 134.299 229.086 133.773C229.365 132.996 229.852 132.31 230.494 131.791C231.136 131.272 231.908 130.939 232.727 130.829C235.273 130.518 237.703 132.425 240.249 132.073C240.899 131.935 241.543 131.765 242.177 131.563C244.221 131.028 246.651 131.451 247.94 133.118C248.214 133.459 248.4 133.861 248.483 134.29C248.566 134.719 248.543 135.162 248.417 135.581Z" fill="#263238"/>
</g>
<path d="M226.362 149.828C226.305 149.816 226.256 149.783 226.224 149.735C226.192 149.687 226.181 149.628 226.192 149.571C228.787 136.082 242.6 133.188 245.884 133.192C245.941 133.193 245.996 133.217 246.036 133.258C246.077 133.299 246.099 133.354 246.099 133.412C246.099 133.441 246.094 133.469 246.083 133.496C246.071 133.522 246.055 133.546 246.035 133.566C246.014 133.586 245.99 133.602 245.963 133.612C245.937 133.623 245.908 133.628 245.88 133.628C242.67 133.628 229.161 136.456 226.619 149.654C226.608 149.711 226.574 149.762 226.526 149.794C226.478 149.827 226.419 149.839 226.362 149.828V149.828Z" fill="white"/>
<path d="M241.389 142.012C241.344 142.009 241.301 141.99 241.269 141.958C239.902 140.932 238.325 140.221 236.651 139.875C234.978 139.528 233.248 139.556 231.586 139.955C231.538 139.954 231.491 139.937 231.453 139.906C231.415 139.875 231.389 139.832 231.378 139.785C231.367 139.737 231.372 139.688 231.393 139.644C231.413 139.599 231.448 139.563 231.491 139.541C233.22 139.128 235.018 139.103 236.758 139.466C238.498 139.829 240.136 140.573 241.555 141.643C241.598 141.682 241.624 141.736 241.628 141.794C241.632 141.852 241.613 141.91 241.575 141.954C241.551 141.977 241.521 141.995 241.489 142.005C241.457 142.015 241.422 142.017 241.389 142.012V142.012Z" fill="white"/>
<path d="M135.187 148.331C135.193 148.463 135.231 148.591 135.296 148.705C135.362 148.818 135.454 148.915 135.564 148.987L154.327 159.818C154.444 159.877 154.573 159.908 154.705 159.908C154.836 159.908 154.965 159.877 155.082 159.818L209.336 128.498C209.447 128.427 209.54 128.331 209.606 128.217C209.672 128.103 209.71 127.975 209.717 127.843V72.9547L190.199 61.6843L135.187 93.4348V148.331Z" fill="#37474F"/>
<path d="M135.187 148.331C135.193 148.463 135.231 148.591 135.296 148.705C135.362 148.818 135.454 148.915 135.564 148.987L154.327 159.818C154.443 159.881 154.573 159.912 154.705 159.909V101.056L136.7 92.5681L135.187 93.4348V148.331Z" fill="#263238"/>
<path d="M154.136 108.483L132.205 95.819C132.039 95.7121 131.901 95.5671 131.802 95.3962C131.703 95.2254 131.647 95.0334 131.637 94.8363V94.0982C131.647 93.9011 131.703 93.7091 131.802 93.5383C131.901 93.3674 132.039 93.2225 132.205 93.1155L189.627 59.9635C189.803 59.8732 189.997 59.8262 190.195 59.8262C190.392 59.8262 190.587 59.8732 190.763 59.9635L212.698 72.6272C212.864 72.7346 213.001 72.8797 213.099 73.0506C213.197 73.2214 213.253 73.4131 213.262 73.6099V74.3604C213.253 74.5572 213.197 74.7489 213.099 74.9197C213.001 75.0906 212.864 75.2357 212.698 75.3432L155.272 108.483C155.097 108.573 154.902 108.62 154.704 108.62C154.507 108.62 154.312 108.573 154.136 108.483V108.483Z" fill="#263238"/>
<path d="M212.699 73.2823L155.272 106.434C155.097 106.525 154.902 106.572 154.704 106.572C154.507 106.572 154.312 106.525 154.136 106.434L132.205 93.7706C132.136 93.7483 132.075 93.7045 132.032 93.6457C131.989 93.5868 131.966 93.5159 131.966 93.4431C131.966 93.3702 131.989 93.2993 132.032 93.2404C132.075 93.1816 132.136 93.1378 132.205 93.1155L189.627 59.9635C189.803 59.8732 189.997 59.8262 190.195 59.8262C190.393 59.8262 190.587 59.8732 190.763 59.9635L212.699 72.6272C212.766 72.6515 212.824 72.696 212.865 72.7546C212.906 72.8132 212.929 72.8831 212.929 72.9547C212.929 73.0264 212.906 73.0962 212.865 73.1548C212.824 73.2135 212.766 73.258 212.699 73.2823V73.2823Z" fill="#455A64"/>
<path d="M154.704 106.571V108.62C154.508 108.624 154.313 108.576 154.14 108.483L132.205 95.8191C132.039 95.7121 131.901 95.5671 131.802 95.3963C131.703 95.2254 131.647 95.0335 131.637 94.8363V94.0982C131.646 93.9226 131.692 93.7509 131.772 93.5944C131.852 93.4379 131.964 93.3001 132.101 93.1901C131.894 93.3684 131.927 93.6048 132.205 93.7706L154.14 106.434C154.314 106.526 154.508 106.573 154.704 106.571V106.571Z" fill="#37474F"/>
<path d="M108.814 110.316V161.924C108.808 162.052 108.772 162.177 108.707 162.288C108.643 162.399 108.553 162.494 108.445 162.563L107.454 163.135C107.34 163.191 107.214 163.22 107.087 163.22C106.96 163.22 106.834 163.191 106.72 163.135L105.729 162.563C105.622 162.492 105.534 162.397 105.469 162.287C105.405 162.176 105.368 162.052 105.36 161.924V110.316C105.36 110.206 105.404 110.1 105.481 110.022C105.559 109.945 105.665 109.901 105.775 109.901H108.383C108.439 109.899 108.494 109.908 108.547 109.928C108.599 109.947 108.646 109.978 108.687 110.016C108.727 110.055 108.759 110.101 108.781 110.153C108.803 110.204 108.814 110.26 108.814 110.316Z" fill="#E8D1C5"/>
<path opacity="0.1" d="M108.814 110.316V161.924C108.808 162.052 108.772 162.177 108.707 162.288C108.643 162.399 108.553 162.494 108.445 162.563L107.454 163.135C107.34 163.191 107.214 163.22 107.087 163.22C106.96 163.22 106.834 163.191 106.72 163.135L105.729 162.563C105.622 162.492 105.534 162.397 105.469 162.287C105.405 162.176 105.368 162.052 105.36 161.924V110.316C105.36 110.206 105.404 110.1 105.481 110.022C105.559 109.945 105.665 109.901 105.775 109.901H108.383C108.439 109.899 108.494 109.908 108.547 109.928C108.599 109.947 108.646 109.978 108.687 110.016C108.727 110.055 108.759 110.101 108.781 110.153C108.803 110.204 108.814 110.26 108.814 110.316Z" fill="black"/>
<path d="M105.783 109.893H106.662C106.772 109.893 106.877 109.936 106.955 110.014C107.033 110.092 107.076 110.197 107.076 110.307V162.923C107.076 163.156 106.911 163.251 106.707 163.135L105.716 162.563C105.61 162.492 105.521 162.397 105.457 162.287C105.393 162.176 105.355 162.052 105.347 161.924V110.316C105.346 110.259 105.357 110.202 105.378 110.149C105.4 110.097 105.432 110.049 105.473 110.009C105.514 109.97 105.562 109.939 105.616 109.919C105.669 109.899 105.726 109.89 105.783 109.893V109.893Z" fill="#E8D1C5"/>
<path d="M123.824 118.911V170.52C123.816 170.648 123.779 170.772 123.715 170.882C123.651 170.993 123.562 171.088 123.455 171.158L122.464 171.731C122.35 171.788 122.223 171.817 122.095 171.817C121.967 171.817 121.841 171.788 121.726 171.731L120.735 171.158C120.629 171.088 120.54 170.993 120.476 170.882C120.412 170.772 120.374 170.648 120.366 170.52V118.911C120.366 118.801 120.41 118.696 120.488 118.618C120.565 118.54 120.671 118.497 120.781 118.497H123.41C123.52 118.497 123.625 118.54 123.703 118.618C123.781 118.696 123.824 118.801 123.824 118.911Z" fill="#E8D1C5"/>
<path opacity="0.1" d="M123.824 118.911V170.52C123.816 170.648 123.779 170.772 123.715 170.882C123.651 170.993 123.562 171.088 123.455 171.158L122.464 171.731C122.35 171.788 122.223 171.817 122.095 171.817C121.967 171.817 121.841 171.788 121.726 171.731L120.735 171.158C120.629 171.088 120.54 170.993 120.476 170.882C120.412 170.772 120.374 170.648 120.366 170.52V118.911C120.366 118.801 120.41 118.696 120.488 118.618C120.565 118.54 120.671 118.497 120.781 118.497H123.41C123.52 118.497 123.625 118.54 123.703 118.618C123.781 118.696 123.824 118.801 123.824 118.911Z" fill="black"/>
<path d="M120.802 118.484H121.676C121.786 118.484 121.892 118.528 121.97 118.606C122.047 118.684 122.091 118.789 122.091 118.899V171.515C122.091 171.751 121.925 171.847 121.722 171.731L120.731 171.158C120.624 171.088 120.536 170.993 120.472 170.882C120.408 170.772 120.37 170.648 120.362 170.52V118.911C120.36 118.854 120.37 118.796 120.392 118.743C120.414 118.689 120.446 118.641 120.488 118.601C120.529 118.561 120.578 118.53 120.632 118.509C120.686 118.489 120.744 118.481 120.802 118.484Z" fill="#E8D1C5"/>
<path d="M143.355 110.473V159.241C143.349 159.371 143.312 159.498 143.248 159.611C143.184 159.724 143.094 159.82 142.986 159.892L141.995 160.464C141.88 160.521 141.754 160.551 141.626 160.551C141.498 160.551 141.372 160.521 141.257 160.464L140.266 159.892C140.159 159.821 140.071 159.727 140.007 159.616C139.943 159.505 139.905 159.381 139.897 159.254V110.486C139.897 110.376 139.941 110.27 140.018 110.192C140.096 110.115 140.202 110.071 140.312 110.071H142.916C142.971 110.067 143.027 110.075 143.079 110.094C143.132 110.112 143.18 110.141 143.221 110.179C143.262 110.216 143.295 110.262 143.318 110.312C143.341 110.363 143.354 110.418 143.355 110.473Z" fill="#E8D1C5"/>
<path opacity="0.1" d="M143.355 110.473V159.241C143.349 159.371 143.312 159.498 143.248 159.611C143.184 159.724 143.094 159.82 142.986 159.892L141.995 160.464C141.88 160.521 141.754 160.551 141.626 160.551C141.498 160.551 141.372 160.521 141.257 160.464L140.266 159.892C140.159 159.821 140.071 159.727 140.007 159.616C139.943 159.505 139.905 159.381 139.897 159.254V110.486C139.897 110.376 139.941 110.27 140.018 110.192C140.096 110.115 140.202 110.071 140.312 110.071H142.916C142.971 110.067 143.027 110.075 143.079 110.094C143.132 110.112 143.18 110.141 143.221 110.179C143.262 110.216 143.295 110.262 143.318 110.312C143.341 110.363 143.354 110.418 143.355 110.473Z" fill="black"/>
<path d="M140.324 110.058H141.199C141.309 110.058 141.414 110.102 141.492 110.18C141.57 110.258 141.614 110.363 141.614 110.473V160.232C141.614 160.469 141.448 160.564 141.245 160.448L140.254 159.876C140.147 159.805 140.058 159.71 139.994 159.6C139.93 159.489 139.893 159.365 139.884 159.237V110.486C139.883 110.428 139.893 110.37 139.914 110.317C139.936 110.264 139.969 110.215 140.01 110.175C140.051 110.135 140.101 110.104 140.155 110.084C140.209 110.064 140.266 110.055 140.324 110.058Z" fill="#E8D1C5"/>
<path d="M141.626 148.385L139.897 147.382L123.833 156.608V158.656L141.626 148.385Z" fill="#E8D1C5"/>
<path opacity="0.2" d="M141.626 148.385L139.897 147.382L123.833 156.608V158.656L141.626 148.385Z" fill="black"/>
<path d="M141.626 148.385V150.43L123.833 160.705V158.656L141.626 148.385Z" fill="#E8D1C5"/>
<path opacity="0.1" d="M141.626 148.385V150.43L123.833 160.705V158.656L141.626 148.385Z" fill="black"/>
<path d="M107.089 150.973L108.814 149.974L120.375 156.608V158.657L107.089 150.973Z" fill="#E8D1C5"/>
<path opacity="0.15" d="M107.089 150.973L108.814 149.974L120.375 156.608V158.657L107.089 150.973Z" fill="black"/>
<path d="M107.089 150.973V153.021L120.375 160.705V158.657L107.089 150.973Z" fill="#E8D1C5"/>
<path d="M117.488 84.7269C117.481 84.8541 117.495 84.9818 117.53 85.1042C118.749 89.6655 119.363 96.0886 119.471 102.167L122.51 100.691C122.328 94.8197 121.681 88.7657 120.528 84.3081C120.275 83.3627 119.4 83.0931 118.513 83.5244C118.252 83.6184 118.021 83.7788 117.841 83.9897C117.661 84.2006 117.54 84.4547 117.488 84.7269V84.7269Z" fill="#455A64"/>
<path d="M119.213 86.1741C120.252 88.6359 120.773 91.2853 120.743 93.9572L106.085 102.441L103.241 95.3919L119.213 86.1741Z" fill="#E8D1C5"/>
<path d="M101.877 95.1431L117.845 85.9211L119.214 86.1741L103.241 95.3961L101.877 95.1431Z" fill="#E8D1C5"/>
<path opacity="0.4" d="M101.877 95.1431L117.845 85.9211L119.214 86.1741L103.241 95.3961L101.877 95.1431Z" fill="white"/>
<path d="M101.018 94.4755C103.128 99.6792 104.586 105.123 105.36 110.685L108.192 108.889C107.38 103.532 105.937 98.2904 103.892 93.273C103.808 93.0693 103.682 92.8858 103.522 92.7344C103.362 92.583 103.172 92.4672 102.964 92.3948C102.755 92.3223 102.534 92.2947 102.315 92.3139C102.095 92.333 101.883 92.3985 101.69 92.5059V92.5059C101.355 92.6932 101.1 92.9981 100.976 93.3618C100.852 93.7255 100.867 94.1223 101.018 94.4755Z" fill="#455A64"/>
<path d="M105.36 112.891V113.272C105.379 113.62 105.471 113.96 105.629 114.27C105.788 114.58 106.01 114.853 106.28 115.072L121.183 126.052C121.464 126.233 121.788 126.338 122.122 126.354C122.456 126.371 122.789 126.3 123.087 126.147L142.899 114.711C143.185 114.525 143.423 114.274 143.593 113.978C143.764 113.683 143.863 113.351 143.882 113.011V112.596C143.865 112.261 143.761 111.937 143.579 111.654C143.398 111.372 143.147 111.142 142.849 110.987L123.543 102.3C123.22 102.171 122.873 102.112 122.525 102.128C122.178 102.144 121.837 102.234 121.527 102.391L106.343 111.19C106.056 111.376 105.818 111.627 105.647 111.923C105.477 112.218 105.378 112.55 105.36 112.891Z" fill="#455A64"/>
<path d="M106.372 111.17H106.243C105.945 111.351 105.693 111.599 105.506 111.894C105.319 112.189 105.202 112.523 105.165 112.87V113.251C105.203 113.605 105.313 113.946 105.488 114.256C105.662 114.565 105.898 114.836 106.181 115.051L121.134 126.031C121.426 126.213 121.76 126.316 122.104 126.33C122.104 126.33 122.158 122.241 122.166 122.146L106.372 111.17Z" fill="#263238"/>
<path d="M143.728 109.934V110.349C143.727 110.684 143.644 111.013 143.488 111.309C143.331 111.605 143.105 111.859 142.829 112.049L123.045 123.485C122.77 123.637 122.459 123.71 122.145 123.697C121.798 123.691 121.459 123.584 121.171 123.39L106.177 112.389C105.894 112.174 105.658 111.903 105.484 111.594C105.31 111.284 105.202 110.942 105.165 110.589V110.208C105.203 109.86 105.32 109.526 105.508 109.231C105.695 108.937 105.949 108.689 106.247 108.508L110.514 106.069L121.515 99.7293C121.828 99.5724 122.17 99.4832 122.519 99.4675C122.869 99.4518 123.217 99.5099 123.543 99.638L142.775 108.325C143.063 108.484 143.303 108.717 143.47 109C143.638 109.283 143.727 109.605 143.728 109.934V109.934Z" fill="#E8D1C5"/>
<path opacity="0.1" d="M122.166 121.014V123.676C121.816 123.67 121.475 123.563 121.183 123.369L106.181 112.389C105.898 112.174 105.661 111.904 105.487 111.594C105.312 111.285 105.202 110.943 105.165 110.589V110.208C105.203 109.86 105.32 109.526 105.508 109.231C105.695 108.937 105.949 108.689 106.247 108.508L110.514 106.069L106.322 108.491C106.198 108.538 106.091 108.62 106.014 108.727C105.936 108.834 105.891 108.961 105.884 109.093C105.878 109.225 105.91 109.356 105.976 109.47C106.043 109.584 106.142 109.676 106.26 109.735L121.163 120.703C121.459 120.903 121.808 121.011 122.166 121.014Z" fill="black"/>
<path opacity="0.3" d="M106.343 108.508L121.54 99.7293C121.85 99.5714 122.19 99.4816 122.538 99.4659C122.885 99.4501 123.232 99.5088 123.555 99.6381L142.862 108.325C143.434 108.586 143.455 109.055 142.911 109.366L123.087 120.802C122.788 120.954 122.456 121.025 122.122 121.007C121.787 120.99 121.464 120.885 121.183 120.703L106.28 109.739C106.166 109.679 106.071 109.587 106.007 109.474C105.943 109.361 105.912 109.233 105.919 109.104C105.925 108.974 105.969 108.849 106.044 108.744C106.119 108.638 106.223 108.556 106.343 108.508V108.508Z" fill="white"/>
<path d="M223.675 102.478V154.087C223.69 154.218 223.735 154.344 223.807 154.455C223.879 154.566 223.976 154.658 224.089 154.726L225.105 155.298C225.221 155.356 225.349 155.386 225.479 155.386C225.608 155.386 225.736 155.356 225.852 155.298L226.942 154.726C227.063 154.66 227.168 154.569 227.249 154.459C227.331 154.348 227.388 154.221 227.415 154.087V102.478C227.415 102.246 227.029 101.977 226.793 101.977H224.172C224.045 101.993 223.927 102.051 223.837 102.142C223.747 102.233 223.69 102.351 223.675 102.478V102.478Z" fill="#E8D1C5"/>
<path opacity="0.1" d="M223.675 102.478V154.087C223.69 154.218 223.735 154.344 223.807 154.455C223.879 154.566 223.976 154.658 224.089 154.726L225.105 155.298C225.221 155.356 225.349 155.386 225.479 155.386C225.608 155.386 225.736 155.356 225.852 155.298L226.942 154.726C227.063 154.66 227.168 154.569 227.249 154.459C227.331 154.348 227.388 154.221 227.415 154.087V102.478C227.415 102.246 227.029 101.977 226.793 101.977H224.172C224.045 101.993 223.927 102.051 223.837 102.142C223.747 102.233 223.69 102.351 223.675 102.478V102.478Z" fill="black"/>
<path d="M226.784 101.977H225.909C225.673 101.977 225.333 102.246 225.333 102.478V155.086C225.334 155.137 225.348 155.187 225.376 155.231C225.404 155.274 225.443 155.308 225.489 155.33C225.535 155.352 225.587 155.361 225.637 155.355C225.688 155.349 225.737 155.33 225.777 155.298L226.9 154.726C227.104 154.609 227.406 154.311 227.406 154.087V102.478C227.406 102.246 227.021 101.977 226.784 101.977Z" fill="#E8D1C5"/>
<path d="M208.747 111.074V162.683C208.755 162.81 208.792 162.934 208.855 163.045C208.918 163.156 209.006 163.25 209.112 163.321L210.103 163.894C210.217 163.95 210.343 163.979 210.47 163.979C210.597 163.979 210.723 163.95 210.837 163.894L211.762 163.321C211.861 163.248 211.94 163.151 211.993 163.04C212.046 162.929 212.07 162.806 212.064 162.683V111.074C212.064 110.838 212.006 110.685 211.77 110.685H209.166C209.112 110.681 209.058 110.688 209.008 110.705C208.957 110.723 208.911 110.751 208.871 110.788C208.832 110.825 208.801 110.869 208.779 110.918C208.758 110.967 208.747 111.021 208.747 111.074V111.074Z" fill="#E8D1C5"/>
<path opacity="0.1" d="M208.747 111.074V162.683C208.755 162.81 208.792 162.934 208.855 163.045C208.918 163.156 209.006 163.25 209.112 163.321L210.103 163.894C210.217 163.95 210.343 163.979 210.47 163.979C210.597 163.979 210.723 163.95 210.837 163.894L211.762 163.321C211.861 163.248 211.94 163.151 211.993 163.04C212.046 162.929 212.07 162.806 212.064 162.683V111.074C212.064 110.838 212.006 110.685 211.77 110.685H209.166C209.112 110.681 209.058 110.688 209.008 110.705C208.957 110.723 208.911 110.751 208.871 110.788C208.832 110.825 208.801 110.869 208.779 110.918C208.758 110.967 208.747 111.021 208.747 111.074V111.074Z" fill="black"/>
<path d="M211.77 110.685H210.903C210.671 110.685 210.418 110.838 210.418 111.074V163.682C210.418 163.914 210.613 164.01 210.833 163.894L211.774 163.321C211.875 163.249 211.957 163.153 212.012 163.042C212.068 162.93 212.096 162.807 212.093 162.683V111.074C212.064 110.85 212.006 110.685 211.77 110.685Z" fill="#E8D1C5"/>
<path d="M189.258 102.636V151.404C189.262 151.532 189.295 151.658 189.356 151.771C189.416 151.883 189.502 151.981 189.606 152.055L190.585 152.627C190.699 152.684 190.824 152.713 190.952 152.713C191.079 152.713 191.205 152.684 191.319 152.627L192.256 152.055C192.357 151.983 192.439 151.886 192.494 151.775C192.55 151.664 192.578 151.541 192.575 151.417V102.648C192.575 102.412 192.484 102.391 192.248 102.391H189.643C189.407 102.391 189.258 102.412 189.258 102.636Z" fill="#E8D1C5"/>
<path opacity="0.1" d="M189.258 102.636V151.404C189.262 151.532 189.295 151.658 189.356 151.771C189.416 151.883 189.502 151.981 189.606 152.055L190.585 152.627C190.699 152.684 190.824 152.713 190.952 152.713C191.079 152.713 191.205 152.684 191.319 152.627L192.256 152.055C192.357 151.983 192.439 151.886 192.494 151.775C192.55 151.664 192.578 151.541 192.575 151.417V102.648C192.575 102.412 192.484 102.391 192.248 102.391H189.643C189.407 102.391 189.258 102.412 189.258 102.636Z" fill="black"/>
<path d="M192.243 102.391H191.364C191.132 102.391 190.912 102.412 190.912 102.648V152.408C190.912 152.644 191.09 152.739 191.294 152.623L192.243 152.051C192.345 151.978 192.427 151.882 192.484 151.771C192.541 151.66 192.571 151.537 192.571 151.412V102.648C192.575 102.412 192.484 102.391 192.243 102.391Z" fill="#E8D1C5"/>
<path d="M190.95 140.548L192.679 139.545L208.747 148.771V150.819L190.95 140.548Z" fill="#E8D1C5"/>
<path opacity="0.2" d="M190.95 140.548L192.679 139.545L208.747 148.771V150.819L190.95 140.548Z" fill="black"/>
<path d="M190.917 140.548V142.593L208.747 152.868V150.819L190.917 140.548Z" fill="#E8D1C5"/>
<path opacity="0.1" d="M190.917 140.548V142.593L208.747 152.868V150.819L190.917 140.548Z" fill="black"/>
<path d="M225.416 143.14L223.658 142.136L212.064 148.771V150.819L225.416 143.14Z" fill="#E8D1C5"/>
<path opacity="0.15" d="M225.416 143.14L223.658 142.136L212.064 148.771V150.819L225.416 143.14Z" fill="black"/>
<path d="M225.333 143.14V145.184L212.064 152.868V150.819L225.333 143.14Z" fill="#E8D1C5"/>
<path d="M215.079 76.8691C215.086 76.9961 215.073 77.1234 215.041 77.2465C213.822 81.8077 213.209 88.2308 213.101 94.3097L210.074 92.8335C210.256 86.9619 210.903 80.9079 212.056 76.4503C212.305 75.5049 213.184 75.2353 214.071 75.6666C214.329 75.7619 214.558 75.923 214.735 76.1339C214.911 76.3449 215.03 76.5983 215.079 76.8691Z" fill="#455A64"/>
<path d="M213.358 78.337C212.316 80.7982 211.796 83.448 211.828 86.1202L226.486 94.6041L229.33 87.5549L213.358 78.337Z" fill="#E8D1C5"/>
<path opacity="0.2" d="M213.358 78.337C212.316 80.7982 211.796 83.448 211.828 86.1202L226.486 94.6041L229.33 87.5549L213.358 78.337Z" fill="black"/>
<path d="M230.695 87.3061L214.726 78.084L213.358 78.337L229.331 87.559L230.695 87.3061Z" fill="#E8D1C5"/>
<path opacity="0.4" d="M230.695 87.3061L214.726 78.084L213.358 78.337L229.331 87.559L230.695 87.3061Z" fill="white"/>
<path d="M231.549 86.6385C229.441 91.8423 227.985 97.2865 227.212 102.848L224.375 101.052C225.191 95.6954 226.635 90.4538 228.68 85.436C228.764 85.2323 228.89 85.0487 229.05 84.8973C229.21 84.7459 229.4 84.6302 229.608 84.5577C229.816 84.4852 230.037 84.4576 230.257 84.4768C230.476 84.496 230.689 84.5614 230.881 84.6688V84.6688C231.216 84.8568 231.47 85.162 231.593 85.5256C231.716 85.8893 231.701 86.2857 231.549 86.6385Z" fill="#37474F"/>
<path d="M227.407 105.045V105.427C227.368 105.78 227.258 106.122 227.084 106.431C226.909 106.74 226.673 107.011 226.391 107.226L211.434 118.206C211.149 118.388 210.822 118.492 210.485 118.509C210.147 118.526 209.811 118.454 209.51 118.302L189.756 106.874C189.478 106.684 189.251 106.431 189.092 106.135C188.933 105.839 188.848 105.51 188.843 105.174V104.78C188.844 104.452 188.931 104.13 189.098 103.847C189.264 103.564 189.502 103.331 189.789 103.171L209.058 94.4838C209.377 94.3546 209.72 94.2958 210.063 94.3116C210.407 94.3273 210.743 94.4172 211.048 94.5751L226.337 103.353C226.633 103.534 226.884 103.781 227.069 104.074C227.255 104.368 227.37 104.7 227.407 105.045Z" fill="#37474F"/>
<path d="M210.489 114.375L202.842 100.899L200.043 98.5433L189.83 103.167C189.549 103.329 189.317 103.565 189.158 103.848C188.999 104.131 188.919 104.451 188.926 104.776V105.17C188.924 105.502 189.003 105.83 189.154 106.126C189.306 106.422 189.526 106.677 189.797 106.87L209.531 118.314C209.823 118.475 210.156 118.547 210.489 118.522V114.375Z" fill="#263238"/>
<path d="M188.843 102.097V102.512C188.845 102.847 188.927 103.176 189.084 103.472C189.241 103.768 189.467 104.022 189.743 104.212L209.526 115.648C209.801 115.8 210.113 115.873 210.426 115.86C210.773 115.854 211.11 115.747 211.397 115.553L226.395 104.573C226.678 104.358 226.913 104.087 227.087 103.778C227.261 103.468 227.37 103.126 227.407 102.773V102.391C227.369 102.044 227.252 101.71 227.064 101.415C226.876 101.12 226.623 100.873 226.324 100.691L222.057 98.2531L211.057 91.913C210.744 91.7561 210.402 91.6669 210.052 91.6512C209.703 91.6354 209.354 91.6936 209.029 91.8217L189.797 100.484C189.508 100.643 189.268 100.877 189.1 101.16C188.932 101.444 188.844 101.767 188.843 102.097V102.097Z" fill="#E8D1C5"/>
<path opacity="0.1" d="M210.405 113.177V115.826C210.756 115.821 211.097 115.714 211.388 115.519L226.39 104.539C226.674 104.325 226.91 104.054 227.085 103.745C227.26 103.435 227.369 103.093 227.406 102.74V102.358C227.369 102.011 227.251 101.677 227.064 101.382C226.876 101.087 226.623 100.839 226.324 100.658L222.057 98.2199L226.245 100.671C226.369 100.718 226.476 100.799 226.554 100.906C226.631 101.013 226.676 101.14 226.683 101.272C226.689 101.404 226.657 101.535 226.591 101.649C226.524 101.763 226.426 101.855 226.307 101.915L211.405 112.882C211.107 113.075 210.76 113.178 210.405 113.177Z" fill="black"/>
<path opacity="0.3" d="M226.245 100.671L211.027 91.8922C210.718 91.7344 210.379 91.6447 210.032 91.6289C209.685 91.6132 209.339 91.6719 209.016 91.801L189.706 100.484C189.137 100.745 189.117 101.214 189.66 101.529L209.485 112.965C209.783 113.117 210.115 113.188 210.449 113.171C210.783 113.154 211.107 113.05 211.388 112.87L226.291 101.898C226.405 101.838 226.5 101.748 226.564 101.637C226.629 101.526 226.661 101.398 226.656 101.27C226.651 101.141 226.61 101.017 226.537 100.911C226.465 100.805 226.363 100.721 226.245 100.671V100.671Z" fill="white"/>
<path d="M182.395 148.207C182.311 148.551 182.349 148.913 182.503 149.231C182.619 149.534 183.776 150.537 186.687 150.255C189.598 149.974 191.48 148.414 192.472 147.705C193.463 146.996 195.055 145.943 196.568 145.674C198.082 145.404 199.388 144.571 199.703 144.11C199.833 143.909 199.919 143.683 199.953 143.446C199.987 143.209 199.97 142.967 199.902 142.738C199.823 142.515 199.685 142.318 199.502 142.167C199.32 142.017 199.1 141.919 198.866 141.884C197.522 141.606 187.355 144.608 187.355 144.608L182.395 148.207Z" fill="#37474F"/>
<path d="M193.658 153.88C193.608 154.435 194.325 156.119 196.498 156.268C198.671 156.417 201.163 155.783 202.668 153.627C204.173 151.47 205.202 149.692 206.06 148.792C206.649 148.218 207.113 147.527 207.42 146.764C207.476 146.573 207.476 146.37 207.42 146.179C207.387 145.972 207.314 145.774 207.205 145.595C207.025 145.387 206.812 145.21 206.574 145.072C205.048 144.143 202.225 144.571 200.354 146.681C198.484 148.792 193.658 153.88 193.658 153.88Z" fill="#37474F"/>
<path d="M205.965 137.534H201.345V145.437H205.965V137.534Z" fill="#FFA8A7"/>
<path d="M197.742 138.927L192.895 140.071L191.041 132.471L196.237 131.156L197.742 138.927Z" fill="#FFA8A7"/>
<path d="M201.702 143.293L201.345 142.34C201.229 144.483 199.247 146.984 197.414 148.659C195.955 149.99 193.392 151.81 193.454 153.071C193.533 154.697 195.855 155.418 197.858 154.949C199.421 154.58 201.449 153.676 202.523 152.52C203.597 151.363 204.148 149.799 204.708 149.041C205.268 148.282 206.491 147.602 206.781 146.727C206.947 146.246 206.732 145.458 206.412 144.595C206.105 143.935 205.946 143.217 205.944 142.489V143.003C205.608 143.372 204.596 143.741 203.547 143.783C202.884 143.808 201.698 143.808 201.702 143.293Z" fill="#FFA8A7"/>
<path d="M195.499 149.754C195.499 149.754 196.743 148.953 198.816 149.804C200.761 150.608 201.884 152.544 202.183 153.121C202.208 153.169 202.218 153.224 202.209 153.278C202.201 153.331 202.176 153.381 202.137 153.419C201.357 154.207 200.41 154.81 199.366 155.183C198.321 155.556 197.207 155.69 196.104 155.576C193.952 155.31 191.663 152.594 195.499 149.754Z" fill="#455A64"/>
<path d="M192.476 138.355C192.536 139.065 192.374 139.777 192.012 140.391C191.46 141.22 190.672 141.635 189.818 142.265C188.363 143.339 184.394 144.753 183.142 145.674C182.354 146.254 182.881 147.996 184.278 148.489C185.315 148.858 188.358 148.775 190.834 147.631C192.186 147.009 194.13 145.557 195.151 145.168C196.27 144.753 198.265 144.703 199.082 143.277C199.778 142.062 199.318 141.249 198.729 140.233C198.128 139.271 197.685 138.22 197.415 137.119L197.178 137.899C196.838 138.774 194.276 139.673 193.032 139.35L192.476 138.355Z" fill="#FFA8A7"/>
<path d="M190.709 147.888C190.485 146.877 189.978 145.95 189.248 145.216C188.517 144.482 187.593 143.97 186.583 143.741C186.583 143.741 184.199 143.579 182.698 145.333C181.603 146.611 182.487 148.448 182.487 148.448C182.487 148.448 183.577 149.716 186.38 149.426C189.706 149.07 190.709 147.888 190.709 147.888Z" fill="#455A64"/>
<path d="M223.343 93.2108C224.288 99.8827 223.459 101.193 216.393 106.766C212.748 109.644 205.952 116.1 205.952 116.1C205.952 116.1 206.889 118.132 206.935 122.909C206.972 127.117 206.98 141.038 206.98 141.038C204.736 141.855 202.296 141.969 199.985 141.365C199.985 141.365 196.821 116.15 197.335 111.725C197.497 110.328 205.376 103.32 206.873 101.035L194.939 111.327C195.725 113.421 196.166 115.628 196.245 117.862C196.473 123.572 197.489 135.22 197.489 135.22C196.668 135.922 195.705 136.439 194.666 136.736C193.627 137.033 192.536 137.103 191.468 136.941C191.468 136.941 185.373 110.755 185.373 108.711C185.373 105.597 198.306 93.1196 200.864 90.9592C202.324 89.7152 203.949 88.4049 203.949 88.4049L223.343 93.2108Z" fill="#455A64"/>
<path d="M206.865 101.035C205.782 99.7603 204.972 98.2772 204.484 96.6774C204.559 97.8217 204.723 98.9585 204.974 100.078C205.343 101.562 194.931 111.327 194.931 111.327L206.865 101.035Z" fill="#37474F"/>
<path d="M201.971 65.8682C205.471 62.1902 206.757 61.1784 208.884 61.195L206.023 72.4737C206.023 72.4737 199.654 77.8021 195.432 80.9618L192.944 75.5049C192.944 75.5049 198.463 69.5462 201.971 65.8682Z" fill="#FFA8A7"/>
<path d="M208.884 61.195C208.884 61.195 206.446 60.631 203.493 63.8156C200.541 67.0002 194.433 73.4108 194.433 73.4108C194.292 74.7585 195.976 79.4856 197.804 80.0993L204.816 73.9457C204.816 73.9457 208.191 71.1966 208.884 69.2145C209.576 67.2324 208.884 61.195 208.884 61.195Z" fill="#E8D1C5"/>
<path d="M192.957 75.5049L186.7 62.1943L183.142 63.6581C183.142 63.6581 188.35 79.4151 189.101 81.1401C189.544 82.1519 190.954 83.3792 192.999 82.3841C193.451 82.1643 194.33 81.6418 195.433 80.9618" fill="#FFA8A7"/>
<path d="M184.456 67.6263C184.042 66.3202 182.644 64.9394 182.445 64.3837C182.259 63.9487 182.198 63.4708 182.267 63.0029L183.88 63.1646L184.456 67.6263Z" fill="#FFA8A7"/>
<path d="M187.79 64.5205C187.525 63.9193 187.479 61.8087 187.811 60.5937C188.143 59.3788 187.371 57.857 187.566 57.0028C187.761 56.1486 187.206 55.8873 186.708 56.1734C186.402 56.3651 186.148 56.6298 185.969 56.944C185.79 57.2581 185.692 57.6117 185.684 57.9731C185.659 58.8604 185.601 61.112 185.962 62.2109C186.322 63.3097 187.79 64.5205 187.79 64.5205Z" fill="#FFA8A7"/>
<path d="M186.953 62.4473C186.857 62.7251 186.492 63.1024 185.315 62.8992L183.142 63.6581L182.259 63.6083C182.732 63.9428 183.31 64.0937 183.887 64.0326C184.463 63.9716 184.997 63.7028 185.389 63.2766C185.389 63.2766 186.986 63.4756 186.953 62.4473Z" fill="#F28F8F"/>
<path d="M184.104 55.1907C184.058 54.6973 183.648 54.1624 182.86 53.6772C180.698 52.5107 178.189 52.1604 175.79 52.6903C174.894 52.9391 174.351 53.3372 174.173 53.7975H174.144C173.368 56.9074 173.418 60.6435 174.26 62.8246C174.26 62.8246 174.26 62.8536 174.26 62.8702V62.9034C174.433 63.3015 174.71 63.6464 175.06 63.9027C175.833 64.4402 176.721 64.7882 177.653 64.9186C178.586 65.049 179.535 64.9581 180.426 64.6532C180.833 64.5042 181.193 64.2478 181.467 63.911V63.882L181.5 63.8405C182.905 61.9745 183.988 58.3919 184.091 55.1907H184.104Z" fill="#E8D1C5"/>
<g opacity="0.3">
<path opacity="0.3" d="M182.851 53.6772C184.684 54.8009 184.51 56.1652 182.437 56.7498C180.038 57.2803 177.528 56.9285 175.367 55.7588C173.534 54.6392 173.708 53.2708 175.782 52.6903C178.18 52.1604 180.69 52.5107 182.851 53.6772V53.6772Z" fill="white"/>
</g>
<path d="M182.097 54.1168C183.594 54.8922 183.465 55.7754 181.815 56.1237C179.876 56.4163 177.893 56.1382 176.109 55.3234C174.612 54.548 174.741 53.6648 176.391 53.3165C178.33 53.0241 180.313 53.3022 182.097 54.1168V54.1168Z" fill="#E8D1C5"/>
<g opacity="0.1">
<path opacity="0.1" d="M182.097 54.1168C183.594 54.8922 183.465 55.7754 181.815 56.1237C179.876 56.4163 177.893 56.1382 176.109 55.3234C174.612 54.548 174.741 53.6648 176.391 53.3165C178.33 53.0241 180.313 53.3022 182.097 54.1168V54.1168Z" fill="black"/>
</g>
<path d="M181.927 55.3276C182.196 55.4594 182.444 55.6314 182.661 55.8376C182.399 55.9714 182.12 56.0677 181.832 56.1237C179.892 56.4163 177.91 56.1382 176.126 55.3234C175.858 55.19 175.611 55.0182 175.392 54.8134C175.654 54.6796 175.933 54.5832 176.221 54.5273C178.161 54.2347 180.143 54.5128 181.927 55.3276Z" fill="#37474F"/>
<path d="M182.993 63.7783C183.407 63.8414 183.83 63.8216 184.237 63.7203C184.809 63.5668 185.344 63.0195 185.875 62.0616C186.322 61.2323 187.085 59.4161 186.758 58.4085C186.343 57.1272 184.863 56.9447 183.855 56.8245L183.519 56.783L183.3 58.3338L183.669 58.3795C184.22 58.4458 185.149 58.5619 185.253 58.8895C185.398 59.5198 184.336 61.9621 183.793 62.2316C183.304 62.301 182.805 62.22 182.362 61.9994L181.653 63.3968C182.077 63.5938 182.529 63.7225 182.993 63.7783Z" fill="#E8D1C5"/>
<path d="M178.473 50.9446C176.652 49.7545 175.831 47.702 177.017 45.554C178.203 43.4061 179.19 41.2499 177.731 39.529C178.321 39.6179 178.872 39.8753 179.32 40.2704C179.767 40.6654 180.091 41.1812 180.252 41.7558C180.928 43.8291 179.887 45.7033 178.863 47.0717C177.838 48.4401 177.652 50.0033 178.473 50.9446Z" fill="#F0F0F0"/>
<path d="M181.831 52.4332C180.193 51.3634 179.455 49.5306 180.521 47.5693C181.587 45.6079 182.474 43.7212 181.16 42.1787C181.69 42.2593 182.185 42.4912 182.587 42.8464C182.988 43.2017 183.279 43.6652 183.424 44.1815C184.029 46.0475 183.096 47.731 182.18 48.9584C181.263 50.1858 181.089 51.5915 181.831 52.4332Z" fill="#F0F0F0"/>
<path d="M184.85 58.8563C185.817 58.8563 188.657 59.9842 188.719 61.0084C188.781 62.0326 186.849 61.9538 186.849 61.9538C186.939 62.1063 186.973 62.2855 186.945 62.4604C186.917 62.6354 186.829 62.795 186.696 62.9117C186.219 63.3263 182.57 62.0823 182.57 62.0823C182.696 61.6642 182.889 61.2693 183.142 60.913C183.323 60.6825 183.589 60.5333 183.88 60.4983C183.88 60.4983 183.412 58.8563 184.85 58.8563Z" fill="#FFA8A7"/>
<path d="M220.747 63.007C222.075 65.1757 222.791 67.663 222.821 70.2055V79.0751L223.617 94.0816C220.445 97.5357 206.346 96.8474 202.826 89.3213C202.826 89.3213 203.157 72.764 203.63 69.2725C204.277 64.5288 205.471 61.1038 210.045 61.0042L215.925 61.8087L220.747 63.007Z" fill="#F0F0F0"/>
<path d="M206.151 104.456C205.695 105.953 205.977 107.865 206.782 108.723C207.022 108.977 207.353 109.126 207.702 109.138C207.989 109.113 208.265 109.019 208.507 108.865C208.75 108.71 208.952 108.5 209.095 108.251C209.354 107.869 209.551 107.449 209.68 107.007L207.657 107.069C207.572 107.068 207.488 107.048 207.412 107.011C207.335 106.975 207.267 106.922 207.213 106.857C207.039 106.605 206.925 106.316 206.88 106.012C206.836 105.709 206.862 105.399 206.956 105.107L208.519 105.277C208.55 104.65 208.359 104.032 207.98 103.532C207.84 103.373 207.655 103.261 207.449 103.212H207.412C206.91 103.134 206.413 103.594 206.151 104.456Z" fill="#EBEBEB"/>
<path d="M206.952 105.103C206.857 105.395 206.832 105.705 206.876 106.008C206.921 106.312 207.035 106.601 207.209 106.853C207.263 106.918 207.331 106.971 207.408 107.007C207.484 107.044 207.568 107.063 207.653 107.065V107.065C207.939 107.065 208.221 106.762 208.374 106.26C208.466 105.941 208.512 105.61 208.511 105.277V105.277L206.952 105.103Z" fill="#E0E0E0"/>
<path d="M207.445 103.208C207.65 103.257 207.836 103.369 207.976 103.528C208.355 104.028 208.545 104.646 208.515 105.273V105.273C208.515 105.606 208.469 105.936 208.378 106.256C208.224 106.758 207.942 107.048 207.656 107.06L209.68 106.998C210.029 105.867 210.005 104.653 209.613 103.536L207.445 103.208Z" fill="#F5F5F5"/>
<path d="M234.244 110.436C234.696 109.715 234.972 108.898 235.049 108.051C235.126 107.203 235.003 106.35 234.688 105.559C234.34 104.809 233.821 104.427 233.278 104.419L222.397 104.274L220.096 104.071L208.345 102.238C208.609 102.335 208.85 102.484 209.056 102.676C209.261 102.869 209.425 103.1 209.539 103.358C209.568 103.416 209.593 103.474 209.618 103.536C210.009 104.653 210.033 105.867 209.684 106.998C209.555 107.441 209.358 107.86 209.099 108.242C208.956 108.491 208.754 108.702 208.511 108.857C208.269 109.011 207.993 109.105 207.706 109.13L219.59 109.308L221.904 109.515L232.652 111.311C233.187 111.406 233.767 111.124 234.244 110.436Z" fill="#FAFAFA"/>
<path d="M211.148 103.552C211.148 103.552 212.392 106.177 210.211 109.167L212.118 109.196C212.684 108.457 213.063 107.592 213.222 106.675C213.382 105.758 213.318 104.816 213.035 103.93L211.148 103.552Z" fill="#E0E0E0"/>
<path d="M214.245 104.328L219.91 105.29C219.91 105.29 220.656 107.525 219.615 109.304L213.557 109.217C213.557 109.217 214.971 106.857 214.245 104.328Z" fill="#F0F0F0"/>
<path d="M219.91 105.29L217.671 104.908L216.261 107.318L217.542 108.607L217.078 109.266L219.615 109.304C220.656 107.533 219.91 105.29 219.91 105.29Z" fill="#E0E0E0"/>
<path d="M215.39 106.364C215.27 106.278 215.184 106.154 215.146 106.012C215.109 105.869 215.122 105.718 215.184 105.585C215.246 105.451 215.353 105.344 215.486 105.281C215.619 105.218 215.77 105.204 215.912 105.24C216.032 105.326 216.118 105.45 216.156 105.592C216.193 105.735 216.18 105.886 216.118 106.019C216.056 106.152 215.949 106.26 215.816 106.323C215.683 106.386 215.532 106.4 215.39 106.364V106.364Z" fill="#FAFAFA"/>
<path d="M227.49 105.331C227.49 105.331 228.319 107.525 226.714 110.307L227.307 110.407C228.236 108.882 228.541 107.058 228.157 105.315L227.49 105.331Z" fill="#E0E0E0"/>
<path d="M229.086 105.418C229.336 106.287 229.391 107.2 229.248 108.092C229.105 108.985 228.766 109.834 228.257 110.581L228.854 110.68C229.364 109.915 229.706 109.051 229.858 108.144C230.01 107.237 229.969 106.308 229.737 105.418H229.086Z" fill="#E0E0E0"/>
<path d="M230.679 105.51C230.95 106.408 231.012 107.356 230.86 108.281C230.709 109.207 230.347 110.086 229.804 110.85L230.401 110.954C230.96 110.179 231.334 109.285 231.492 108.343C231.65 107.4 231.589 106.433 231.313 105.518L230.679 105.51Z" fill="#E0E0E0"/>
<path d="M232.271 105.597C232.56 106.522 232.627 107.503 232.465 108.459C232.304 109.415 231.919 110.32 231.342 111.099L231.943 111.199C232.55 110.414 232.953 109.492 233.117 108.514C233.281 107.535 233.199 106.532 232.88 105.593L232.271 105.597Z" fill="#E0E0E0"/>
<path d="M224.376 80.9618L227.523 87.2978C227.523 87.2978 222.854 100.588 221.796 101.844C220.739 103.1 219.574 102.926 218.915 103.863C219.53 104.033 220.163 104.125 220.801 104.137C221.61 105.132 221.125 107.91 219.835 109.333C219.835 109.333 220.167 110.643 222.493 111.108C223.231 111.253 224.666 111.145 225.396 110.631C226.83 109.598 227.909 106.55 227.664 104.709C227.469 103.266 227.49 102.255 228.099 100.919C230.973 94.6041 232.246 91.7429 234.037 88.4049C233.623 85.436 229.82 76.4503 229.82 76.4503L224.376 80.9618Z" fill="#FFA8A7"/>
<path d="M220.747 63.007C224.318 64.3008 226.138 67.8669 228.161 71.9015C230.185 75.9361 232.005 80.2693 232.005 80.2693C232.005 80.2693 229.932 83.1719 225.437 84.0676L221.129 76.0398C221.129 76.0398 216.754 69.0818 220.747 63.007Z" fill="#E8D1C5"/>
<path d="M214.343 49.3938C215.158 45.9391 213.018 42.4775 209.564 41.6621C206.109 40.8467 202.647 42.9863 201.832 46.441C201.016 49.8958 203.156 53.3574 206.611 54.1728C210.066 54.9882 213.527 52.8486 214.343 49.3938Z" fill="#263238"/>
<path d="M218.612 51.7573C218.612 51.7573 217.625 56.3891 217.231 57.1479C216.967 57.6178 216.532 57.9682 216.016 58.1265L216.087 54.8673L218.612 51.7573Z" fill="#263238"/>
<path d="M217.372 45.1228C217.717 45.0824 218.067 45.1212 218.394 45.2362C218.722 45.3511 219.019 45.5392 219.263 45.7862C220.092 46.6156 219.62 49.2113 218.612 51.7573L216.754 51.9688L217.372 45.1228Z" fill="#263238"/>
<path d="M216.199 51.9688C216.568 52.1886 217.099 51.4754 217.559 50.9944C218.019 50.5134 219.516 49.8582 220.267 51.4339C221.017 53.0096 219.603 55.1658 218.425 55.5307C216.394 56.1693 216.087 54.8631 216.087 54.8631L215.933 62.1985C214.179 64.1556 208.187 63.6871 209.299 62.0036V59.7727C208.393 59.9166 207.474 59.9639 206.558 59.9137C205.065 59.6815 204.124 58.4997 203.655 56.8825C202.93 54.2826 202.652 52.1844 203.27 47.0717C203.946 41.4655 210.464 41.4074 213.984 43.6217C217.505 45.836 216.199 51.9688 216.199 51.9688Z" fill="#FFA8A7"/>
<path d="M216.199 52.5991C216.385 52.5991 217.094 51.4215 217.559 50.9985C218.201 50.4138 217.372 45.1228 217.372 45.1228C217.546 44.6633 217.581 44.1626 217.471 43.6836C217.361 43.2047 217.111 42.7691 216.754 42.4317C215.875 41.4614 214.403 41.3535 211.894 40.9596C210.576 40.7523 208.577 40.3832 207.267 40.1303C205.695 39.84 204.397 39.529 203.286 40.4952C203.002 40.7124 202.766 40.9866 202.594 41.3002C202.422 41.6139 202.317 41.9601 202.287 42.3165C202.256 42.673 202.301 43.0319 202.417 43.3702C202.533 43.7086 202.719 44.0188 202.963 44.281C203.263 44.6371 203.654 44.9051 204.095 45.0564C204.095 45.0564 204.779 45.666 207.159 45.9563C209.539 46.2465 213.25 45.8982 213.76 45.8319C214.449 45.7365 214.59 46.4041 214.971 48.2327C215.295 49.8623 215.568 52.5867 216.199 52.5991Z" fill="#263238"/>
<path d="M217.368 45.5333L219.611 44.3266C219.539 44.1753 219.437 44.0401 219.311 43.9293C219.185 43.8184 219.038 43.7341 218.879 43.6814C218.72 43.6287 218.552 43.6088 218.385 43.6227C218.218 43.6367 218.055 43.6843 217.907 43.7627C217.606 43.9317 217.383 44.2101 217.282 44.5399C217.182 44.8697 217.212 45.2255 217.368 45.5333V45.5333Z" fill="#263238"/>
<path d="M209.319 59.7768C209.319 59.7768 212.657 59.1051 213.827 58.4831C214.512 58.1242 215.074 57.5681 215.44 56.8867C215.263 57.5691 214.952 58.2092 214.523 58.7692C213.669 59.8473 209.319 60.6766 209.319 60.6766V59.7768Z" fill="#F28F8F"/>
<path d="M210.124 51.1395C210.122 51.2289 210.137 51.3179 210.17 51.4013C210.202 51.4847 210.251 51.5608 210.313 51.6252C210.375 51.6896 210.449 51.7411 210.531 51.7766C210.614 51.8121 210.702 51.8309 210.791 51.832C210.93 51.8378 211.068 51.8018 211.186 51.7287C211.305 51.6555 211.399 51.5486 211.456 51.4217C211.513 51.2948 211.531 51.1537 211.507 51.0166C211.483 50.8795 211.418 50.7526 211.322 50.6524C211.225 50.5523 211.101 50.4833 210.965 50.4544C210.829 50.4256 210.687 50.4382 210.558 50.4906C210.429 50.543 210.319 50.6328 210.241 50.7485C210.164 50.8641 210.123 51.0003 210.124 51.1395V51.1395Z" fill="#263238"/>
<path d="M211.198 48.3654L212.628 49.1574C212.731 48.9612 212.753 48.7331 212.692 48.5206C212.63 48.3082 212.488 48.1278 212.297 48.0171C212.202 47.9652 212.098 47.933 211.991 47.9225C211.884 47.912 211.775 47.9233 211.673 47.9559C211.57 47.9885 211.475 48.0415 211.393 48.1119C211.312 48.1823 211.245 48.2686 211.198 48.3654V48.3654Z" fill="#263238"/>
<path d="M209.622 55.7588L208.096 56.331C208.129 56.4335 208.183 56.5283 208.253 56.6097C208.324 56.691 208.41 56.7573 208.507 56.8046C208.604 56.8518 208.709 56.879 208.817 56.8846C208.924 56.8901 209.032 56.8739 209.133 56.8369C209.339 56.7561 209.505 56.5983 209.596 56.397C209.687 56.1958 209.697 55.9668 209.622 55.7588V55.7588Z" fill="#F28F8F"/>
<path d="M203.987 48.9542L205.293 47.9508C205.231 47.8624 205.153 47.7875 205.062 47.7305C204.97 47.6736 204.868 47.6358 204.762 47.6195C204.656 47.6032 204.547 47.6087 204.443 47.6357C204.339 47.6627 204.242 47.7107 204.157 47.7766C203.982 47.9135 203.868 48.1122 203.836 48.3314C203.804 48.5507 203.858 48.7737 203.987 48.9542V48.9542Z" fill="#263238"/>
<path d="M204.559 50.9446C204.557 51.0343 204.573 51.1235 204.605 51.2071C204.637 51.2907 204.686 51.3671 204.748 51.4318C204.81 51.4966 204.884 51.5484 204.967 51.5843C205.049 51.6203 205.137 51.6396 205.227 51.6412C205.409 51.6369 205.581 51.5607 205.707 51.4294C205.833 51.2981 205.902 51.1223 205.899 50.9405C205.906 50.8481 205.894 50.7552 205.864 50.6677C205.833 50.5801 205.785 50.4998 205.722 50.4317C205.659 50.3637 205.583 50.3094 205.498 50.2723C205.413 50.2351 205.322 50.216 205.229 50.216C205.136 50.216 205.045 50.2351 204.96 50.2723C204.875 50.3094 204.798 50.3637 204.736 50.4317C204.673 50.4998 204.625 50.5801 204.594 50.6677C204.564 50.7552 204.552 50.8481 204.559 50.9405V50.9446Z" fill="#263238"/>
<path d="M207.864 50.4097L207.789 54.4651L205.388 53.9384L207.864 50.4097Z" fill="#F28F8F"/>
<path d="M123.941 56.6545C128.407 56.6545 132.027 53.0343 132.027 48.5686C132.027 44.1029 128.407 40.4828 123.941 40.4828C119.475 40.4828 115.855 44.1029 115.855 48.5686C115.855 53.0343 119.475 56.6545 123.941 56.6545Z" fill="#E8D1C5"/>
<path d="M123.941 38.1482C123.841 38.1482 123.742 38.1285 123.649 38.0901C123.557 38.0517 123.473 37.9954 123.403 37.9245C123.332 37.8536 123.276 37.7695 123.238 37.6769C123.2 37.5844 123.181 37.4853 123.182 37.3853V33.8192C123.174 33.7145 123.188 33.6094 123.223 33.5104C123.257 33.4114 123.312 33.3206 123.384 33.2437C123.455 33.1668 123.542 33.1055 123.638 33.0636C123.734 33.0216 123.838 33 123.943 33C124.048 33 124.151 33.0216 124.248 33.0636C124.344 33.1055 124.43 33.1668 124.502 33.2437C124.573 33.3206 124.628 33.4114 124.663 33.5104C124.697 33.6094 124.711 33.7145 124.704 33.8192V37.3853C124.704 37.5876 124.623 37.7817 124.48 37.9248C124.337 38.0678 124.143 38.1482 123.941 38.1482Z" fill="#E8D1C5"/>
<path d="M117.368 40.2837C117.248 40.2841 117.129 40.2557 117.021 40.2009C116.914 40.1461 116.821 40.0664 116.75 39.9686L114.652 37.066C114.593 36.9843 114.551 36.8918 114.528 36.7939C114.505 36.6959 114.502 36.5943 114.518 36.495C114.534 36.3956 114.57 36.3005 114.622 36.2149C114.675 36.1293 114.745 36.055 114.826 35.9961C114.908 35.9373 115.001 35.8952 115.099 35.8721C115.197 35.849 115.298 35.8455 115.397 35.8617C115.497 35.8778 115.592 35.9134 115.678 35.9664C115.763 36.0193 115.837 36.0886 115.896 36.1703L117.994 39.0729C118.112 39.2365 118.16 39.4399 118.128 39.6387C118.096 39.8376 117.987 40.0158 117.824 40.1344C117.693 40.2328 117.533 40.2852 117.368 40.2837V40.2837Z" fill="#E8D1C5"/>
<path d="M113.309 45.8733C113.229 45.8731 113.149 45.8605 113.073 45.836L109.677 44.733C109.582 44.7025 109.494 44.6536 109.417 44.5891C109.341 44.5245 109.279 44.4456 109.233 44.3569C109.187 44.2681 109.16 44.1713 109.151 44.0718C109.143 43.9724 109.155 43.8723 109.185 43.7772C109.216 43.6822 109.265 43.5941 109.329 43.518C109.394 43.4419 109.473 43.3792 109.561 43.3336C109.65 43.288 109.747 43.2603 109.846 43.2521C109.946 43.2439 110.046 43.2554 110.141 43.2859L113.537 44.3889C113.712 44.4422 113.862 44.5569 113.959 44.7118C114.056 44.8666 114.093 45.0513 114.065 45.2318C114.037 45.4124 113.944 45.5767 113.805 45.6945C113.665 45.8124 113.488 45.8759 113.305 45.8733H113.309Z" fill="#E8D1C5"/>
<path d="M109.913 53.8887C109.73 53.8923 109.552 53.8295 109.411 53.712C109.271 53.5945 109.177 53.4302 109.149 53.2493C109.12 53.0685 109.157 52.8833 109.254 52.728C109.351 52.5726 109.501 52.4576 109.677 52.4042L113.073 51.3012C113.265 51.2391 113.473 51.2557 113.653 51.3475C113.833 51.4392 113.968 51.5986 114.03 51.7905C114.093 51.9824 114.076 52.1911 113.984 52.3708C113.892 52.5504 113.733 52.6862 113.541 52.7484L110.141 53.8514C110.067 53.8754 109.99 53.888 109.913 53.8887Z" fill="#E8D1C5"/>
<path d="M115.27 61.2655C115.11 61.2644 114.953 61.2137 114.822 61.1203C114.659 61.0009 114.55 60.822 114.518 60.6224C114.487 60.4229 114.535 60.2189 114.652 60.0547L116.751 57.152C116.869 56.9871 117.049 56.8761 117.249 56.8434C117.45 56.8107 117.655 56.8591 117.82 56.9779C117.985 57.0967 118.096 57.2761 118.129 57.4767C118.162 57.6774 118.113 57.8827 117.995 58.0477L115.896 60.9503C115.825 61.0488 115.73 61.1288 115.621 61.1836C115.513 61.2384 115.392 61.2665 115.27 61.2655V61.2655Z" fill="#E8D1C5"/>
<path d="M123.941 64.081C123.841 64.081 123.742 64.0614 123.65 64.0233C123.558 63.9851 123.474 63.9292 123.404 63.8588C123.334 63.7883 123.278 63.7047 123.24 63.6126C123.201 63.5205 123.182 63.4218 123.182 63.3222V59.752C123.174 59.6473 123.188 59.5422 123.223 59.4432C123.257 59.3442 123.312 59.2534 123.384 59.1765C123.455 59.0996 123.542 59.0383 123.638 58.9964C123.734 58.9544 123.838 58.9328 123.943 58.9328C124.048 58.9328 124.151 58.9544 124.248 58.9964C124.344 59.0383 124.43 59.0996 124.502 59.1765C124.573 59.2534 124.628 59.3442 124.663 59.4432C124.697 59.5422 124.711 59.6473 124.704 59.752V63.3222C124.702 63.5238 124.622 63.7168 124.479 63.859C124.336 64.0012 124.142 64.081 123.941 64.081V64.081Z" fill="#E8D1C5"/>
<path d="M132.611 61.2655C132.491 61.2645 132.373 61.2355 132.267 61.1808C132.16 61.1261 132.068 61.0472 131.998 60.9504L129.899 58.0477C129.841 57.9661 129.798 57.8736 129.775 57.7756C129.752 57.6776 129.749 57.5761 129.765 57.4768C129.781 57.3774 129.817 57.2822 129.87 57.1966C129.923 57.111 129.992 57.0367 130.073 56.9779C130.155 56.9191 130.248 56.877 130.346 56.8539C130.444 56.8308 130.545 56.8273 130.644 56.8434C130.744 56.8596 130.839 56.8952 130.925 56.9481C131.01 57.0011 131.084 57.0704 131.143 57.1521L133.241 60.0547C133.359 60.2189 133.407 60.4229 133.376 60.6225C133.344 60.822 133.234 61.0009 133.071 61.1204C132.937 61.2162 132.776 61.267 132.611 61.2655V61.2655Z" fill="#E8D1C5"/>
<path d="M137.969 53.8887C137.89 53.8881 137.812 53.8755 137.737 53.8514L134.341 52.7484C134.239 52.7227 134.144 52.6765 134.061 52.6127C133.979 52.5488 133.91 52.4685 133.859 52.3769C133.809 52.2854 133.778 52.1844 133.768 52.0803C133.758 51.9762 133.77 51.8712 133.802 51.7718C133.835 51.6724 133.887 51.5807 133.957 51.5025C134.026 51.4242 134.111 51.3611 134.206 51.317C134.3 51.2728 134.403 51.2487 134.508 51.246C134.612 51.2432 134.716 51.2621 134.813 51.3012L138.205 52.4042C138.38 52.4576 138.53 52.5726 138.627 52.728C138.724 52.8833 138.762 53.0685 138.733 53.2493C138.704 53.4302 138.611 53.5945 138.471 53.712C138.33 53.8295 138.152 53.8923 137.969 53.8887V53.8887Z" fill="#E8D1C5"/>
<path d="M134.577 45.8733C134.394 45.8769 134.216 45.8142 134.075 45.6967C133.935 45.5792 133.841 45.4148 133.813 45.234C133.784 45.0531 133.821 44.8679 133.918 44.7126C134.016 44.5573 134.165 44.4423 134.341 44.3888L137.737 43.2859C137.929 43.2237 138.137 43.2404 138.317 43.3321C138.497 43.4239 138.632 43.5832 138.695 43.7752C138.757 43.9671 138.74 44.1758 138.648 44.3554C138.557 44.5351 138.397 44.6709 138.205 44.733L134.813 45.836C134.737 45.8605 134.657 45.8731 134.577 45.8733V45.8733Z" fill="#E8D1C5"/>
<path d="M130.513 40.2837C130.373 40.2839 130.236 40.2453 130.116 40.172C129.996 40.0988 129.899 39.9939 129.836 39.8689C129.772 39.7439 129.745 39.6037 129.756 39.464C129.767 39.3242 129.817 39.1903 129.9 39.0771L131.998 36.1744C132.117 36.0095 132.296 35.8985 132.497 35.8658C132.697 35.8331 132.903 35.8815 133.068 36.0003C133.233 36.1191 133.344 36.2985 133.376 36.4991C133.409 36.6998 133.361 36.9051 133.242 37.0701L131.144 39.9727C131.071 40.0715 130.976 40.1514 130.867 40.2056C130.757 40.2597 130.636 40.2865 130.513 40.2837V40.2837Z" fill="#E8D1C5"/>
<defs>
<filter id="filter0_d" x="0" y="0" width="1157" height="219" filterUnits="userSpaceOnUse" color-interpolation-filters="sRGB">
<feFlood flood-opacity="0" result="BackgroundImageFix"/>
<feColorMatrix in="SourceAlpha" type="matrix" values="0 0 0 0 0 0 0 0 0 0 0 0 0 0 0 0 0 0 127 0"/>
<feOffset/>
<feGaussianBlur stdDeviation="13"/>
<feColorMatrix type="matrix" values="0 0 0 0 0.298039 0 0 0 0 0.133333 0 0 0 0 0 0 0 0 0.15 0"/>
<feBlend mode="normal" in2="BackgroundImageFix" result="effect1_dropShadow"/>
<feBlend mode="normal" in="SourceGraphic" in2="effect1_dropShadow" result="shape"/>
</filter>
</defs>
</svg>
